<?xml version="1.0" encoding="utf-8"?>
<!-- Generator: Adobe Illustrator 18.1.0, SVG Export Plug-In . SVG Version: 6.00 Build 0)  -->
<!DOCTYPE svg PUBLIC "-//W3C//DTD SVG 1.1//EN" "http://www.w3.org/Graphics/SVG/1.1/DTD/svg11.dtd">
<svg version="1.1" id="图层_1" xmlns="http://www.w3.org/2000/svg" xmlns:xlink="http://www.w3.org/1999/xlink" x="0px" y="0px"
	 viewBox="0 0 132 132" enable-background="new 0 0 132 132" xml:space="preserve">
<g>
	<path fill="#FFFFFF" d="M98.8,97.3c-0.3-4.1-0.5-8.3-1.1-12.4c-0.8-6.3-2.9-12.1-7.5-16.7c-3.1-3.1-6.8-5.3-10.7-7.4c-1.6-0.8-3.2-1.6-4.8-2.4
		c-0.4-0.2-0.8-0.6-1-1c-1.4-2.9-2.4-5.9-2.5-9.2c-0.2-3.9,0.8-7.4,4.2-9.9c0.2-0.1,0.4-0.4,0.4-0.6c0-1.2,0-2.5,0-3.8
		c-4.9,0.9-9.3,2.3-11.7,7c-0.6,1.1-1,2.3-1.5,3.5c-0.3,0.7-0.6,1.4-1,2.1c-2.2,3.3-1.7,6.5,0,9.8c0,0.1,0,0.1,0,0.2
		c-1,0.5-1.6,0.5-2.1-0.4c-2.6-5.3-3.6-10.8-1.5-16.5c1.9-5.1,5.9-7.5,11-8.6c1.1-0.2,2.2-0.3,3.3-0.5c0-2.6,0-5.2,0-7.9
		c-1.2,0.1-2.4,0.2-3.6,0.4c-1.4,0.2-1.3,0.2-1.8-1.1c-0.6-2-1.4-4-2.1-6.1c-1.4,0.9-2.6,1.7-3.8,2.5c0.7,2,1.4,3.9,2.1,5.9
		c-0.7,0.2-1.2,0.2-1.6,0.4c-0.6,0.2-0.9,0-1.1-0.5c-0.8-2.2-1.6-4.3-2.4-6.5c-0.1-0.3-0.2-0.5-0.3-0.9c-1.4,0.4-2.7,0.8-4.2,1.2
		c0.5,1.5,1,2.9,1.5,4.4c0.4,1.3,0.8,2.5,1.3,3.8c0.2,0.5,0.1,0.8-0.3,1.1c-0.9,0.7-1.7,1.4-2.7,2.2c-1-2.4-2-4.8-3-7.2
		c-1.3,0.4-2.6,0.8-4.2,1.2c0.7,1.7,1.3,3.4,2,5c0.6,1.4,1.4,2.7,2,4c0.2,0.4,0.2,0.9,0.1,1.3c-2,4.1-3,8.4-2.6,12.9
		c0.5,6.4,3.6,11.1,9.6,13.8c0.4,0.2,0.9,0.2,1.4,0c2.2-0.6,5.1-0.6,6.7,0c-1.1,0.3-2.1,0.6-3.1,0.9c-8.8,3-15.4,8.5-18.6,17.3
		c-4,11.3-1.1,21.5,9,29.1c6.3,4.8,13.5,7.4,21.4,8.4c1.1,0.1,2.2,0.3,3.3,0.4c1.9,0,3.7,0,5.6,0c1.5-0.1,3.1-0.2,4.6-0.4
		c2.3-0.3,4.5-0.8,6.5-1.9c2.7-1.5,4.2-3.7,4.7-6.7c0-0.2,0.1-0.4,0.2-0.6c0-2.8,0-5.5,0-8.3C98.9,98.2,98.9,97.8,98.8,97.3z"/>
	<path fill="#FFFFFF" d="M54.9,61.9c-0.3-0.2-0.6-0.4-0.8-0.5c-3.3-2-5.6-4.9-7-8.6C46,50,45.7,47,45.6,44c0-0.5-0.3-1-0.4-1.5
		c-0.5,0.3-1,0.6-1.4,0.9c-0.2,0.1-0.3,0.3-0.4,0.5c-1.9,3-2.5,6.2-1.7,9.6c0.1,0.3,0,0.9-0.3,1c-4,3.3-6.4,7.5-7.6,12.5
		c-0.3,1.4-0.5,2.8-0.8,4.2c0,0.9,0,1.8,0,2.7c0.1,0.3,0.2,0.6,0.2,0.9c0.4,4.7,2.2,8.8,5.5,12.3c0.2,0.2,0.5,0.5,0.8,0.7
		C38.4,75.6,44.7,67.7,54.9,61.9z"/>
	<path fill="#FFFFFF" d="M74.2,51.8c0.2,1.6,0.7,3.1,1.1,4.6c0.1,0.3,0.4,0.6,0.7,0.8c2,1,4.1,2,6.2,3c0-0.1,0.1-0.3,0-0.5
		c-0.2-3.7-1.9-6.6-4.8-8.8c-0.3-0.2-0.7-0.4-1.1-0.6C74.9,49.8,74,50.4,74.2,51.8z"/>
</g>
</svg>
