<?xml version="1.0" encoding="utf-8"?>
<!-- Generator: Adobe Illustrator 18.1.0, SVG Export Plug-In . SVG Version: 6.00 Build 0)  -->
<!DOCTYPE svg PUBLIC "-//W3C//DTD SVG 1.1//EN" "http://www.w3.org/Graphics/SVG/1.1/DTD/svg11.dtd">
<svg version="1.1" id="图层_1" xmlns="http://www.w3.org/2000/svg" xmlns:xlink="http://www.w3.org/1999/xlink" x="0px" y="0px"
	 viewBox="0 0 132 132" enable-background="new 0 0 132 132" xml:space="preserve">
<path fill="#FFFFFF" d="M23,88.6c0.2-0.6,0.4-1.3,0.7-1.9c1.7-4.6,6.2-7.1,11-6.1c0.3,0.1,0.6,0.1,0.9,0c7.5-2.4,13.7-6.4,18-13.1
	c0.6-1,1-2,0.6-3.2c-0.2-0.6,0-1.3,0-2.1c-3.2-1.5-6.7-1.9-10.4-1.2c-0.3,0.1-0.5,0.3-0.8,0.5c-2.1,1.7-4.5,1.9-6.9,0.8
	c-2.6-1.2-4.2-3.2-4.4-6c-0.4-4.7,2.9-8.4,7.2-8.2c3.4,0.1,6.4,2.6,7.3,5.9c0.1,0.5,0.5,1.1,1,1.4c2.1,1.5,4.5,2.5,7.1,3
	c0.7,0.2,1.1,0,1.5-0.7c0.6-1.1,0.7-2.1,0.3-3.4c-2.1-6.8-5.7-12.4-11.6-16.5c-0.5-0.4-1.3-0.6-2-0.6c-5.9-0.1-9.7-4-9.8-9.9
	c0-5.5,3.9-9,7.4-9.8c6.7-1.5,13.3,4.8,12,11.4c-0.1,0.5-0.2,1.1,0,1.6c1.8,7.8,5.6,14.3,12.4,18.9c0.9,0.7,1.9,1.1,3.1,1.1
	c3.8,0.1,6.9,1.7,9.4,4.6c0.2,0.3,0.8,0.5,1.1,0.4c4.7-0.7,8.7-2.8,11.9-6.3c0.3-0.3,0.4-0.8,0.6-1.2c0.9-2.6,2.5-4.6,5.3-5.2
	c3.1-0.6,5.6,0.4,7.6,2.8c1.8,2.2,2,5.6,0.4,8.3c-1.4,2.5-4.5,4-7.3,3.4c-1.2-0.2-2.3-0.8-3.5-1.2c-0.7-0.2-1.4-0.5-2.1-0.4
	c-4.2,0.6-7.8,2.3-10.8,5.3c-0.3,0.3-0.6,0.9-0.6,1.4c0,2.2-0.3,4.3-1,6.3c-0.1,0.3-0.1,0.7,0,1.1c2.8,7.8,7.7,14,15.2,17.9
	c0.5,0.3,1.1,0.4,1.7,0.4c6.6,0,12,4.5,13.2,10.9c0,0.2,0.2,0.5,0.2,0.7c0,1.2,0,2.4,0,3.6c-0.1,0.3-0.2,0.5-0.3,0.8
	c-0.9,4-2.9,7.3-6.6,9.4c-4.9,2.7-11,2-15.3-1.7c-3.9-3.3-5.7-9.8-3.6-14.7c0.9-2.1,0.7-3.8-0.3-5.7c-0.2-0.4-0.3-0.8-0.5-1.1
	C80,84.7,76.7,80,71.8,76.4c-0.5-0.4-1-0.5-1.7-0.4c-3,0.4-5.9,0.3-8.7-1.1c-0.3-0.2-0.8-0.2-1.2-0.1c-6.8,2.4-12.7,6.1-16.8,12.1
	c-0.6,0.9-1,1.7-0.9,2.9c0.5,4.7-2.9,9.1-7.5,10.1c-4.9,1.1-9.6-1.4-11.3-6c-0.2-0.7-0.5-1.3-0.7-2C23,90.8,23,89.7,23,88.6z"/>
</svg>
