<?xml version="1.0" encoding="utf-8"?>
<!-- Generator: Adobe Illustrator 18.1.0, SVG Export Plug-In . SVG Version: 6.00 Build 0)  -->
<!DOCTYPE svg PUBLIC "-//W3C//DTD SVG 1.1//EN" "http://www.w3.org/Graphics/SVG/1.1/DTD/svg11.dtd">
<svg version="1.1" id="图层_1" xmlns="http://www.w3.org/2000/svg" xmlns:xlink="http://www.w3.org/1999/xlink" x="0px" y="0px"
	 viewBox="0 0 132 132" enable-background="new 0 0 132 132" xml:space="preserve">
<g>
	<path fill="#FFFFFF" d="M48.3,94.8c0.1-3.7,0-7.5,0.2-11.3c1.8,5.6,4.4,10.7,8.6,15C73.7,82.1,90.3,65.8,107,49.3c-10.1-8.2-21.3-11-33.6-7.3
		C61,45.6,53,53.9,48.7,66c0-0.4,0-0.8,0-1.2c0-8.9,0-17.8,0-26.6c0-6.4-2.4-11.7-7.7-15.5c-9.8-7-23.4-1.8-26.5,10.2
		c-0.5,1.9-0.6,4-0.6,5.9c-0.1,13.7-0.2,27.3-0.2,41c0,0.8-0.1,1.6-0.2,2.5c0,5,0,10,0,15c0.2,0.6,0.4,1.3,0.5,1.9
		c2.2,7.2,6.8,11.7,14.3,13.1c0.2,0,0.5,0.2,0.7,0.3c1.2,0,2.3,0,3.5,0c1-0.2,1.9-0.4,2.9-0.7C43.1,109.7,48.1,103.1,48.3,94.8z
		 M17,38.2c0-0.7,0.1-1.5,0.3-2.2c0.7-2,2.4-3,4.5-2.8c1.8,0.2,3.3,1.7,3.5,3.7c0,0.4,0.1,0.7,0.1,1.1c0,7.7,0,15.3,0,23
		c0,0.3,0,0.7-0.1,1.1c-2.8,0-5.5,0-8.4,0c0-0.5,0-0.9,0-1.3C17,53.2,16.9,45.7,17,38.2z M18.8,102.2c-1.5-2.6-2.3-5.4-2.3-8.4
		c0.2-8.1,0.3-16.2,0.5-24.2c0-0.3,0-0.6,0.1-1c9.6,0,19,0,28.6,0c0,0.5,0,0.9,0,1.4c-0.2,8.6-0.3,17.2-0.5,25.7
		c-0.1,6.1-4.8,11.8-10.8,13.4C28.3,110.5,22.1,107.9,18.8,102.2z"/>
	<path fill="#FFFFFF" d="M59.2,101.1c13.3,12,35.3,12.4,48.9-1.2c13.9-13.8,13.1-34.9,1.3-47.8C92.7,68.4,76,84.7,59.2,101.1z"/>
</g>
</svg>
