<?xml version="1.0" encoding="utf-8"?>
<!-- Generator: Adobe Illustrator 18.1.0, SVG Export Plug-In . SVG Version: 6.00 Build 0)  -->
<!DOCTYPE svg PUBLIC "-//W3C//DTD SVG 1.1//EN" "http://www.w3.org/Graphics/SVG/1.1/DTD/svg11.dtd">
<svg version="1.1" id="图层_1" xmlns="http://www.w3.org/2000/svg" xmlns:xlink="http://www.w3.org/1999/xlink" x="0px" y="0px"
	 viewBox="0 0 132 132" enable-background="new 0 0 132 132" xml:space="preserve">
<g>
	<path fill="#fbf7ef" d="M123.8,81.3L90.6,26.6c-6.3-10.4-19.9-13.7-30.3-7.4l-2.1,1.2c-10.4,6.3-13.8,19.9-7.4,30.3L84,105.4
		c6.3,10.4,19.9,13.7,30.3,7.4l2.1-1.2C126.8,105.3,130.1,91.7,123.8,81.3z M70.8,77.1L53.7,49c-0.3-0.5-0.6-1.1-0.9-1.7
		c-4.1-8.5-1.1-18.9,7.2-23.9l2.1-1.3c7.7-4.7,17.5-3.1,23.4,3.3c0.8,0.9,1.6,1.9,2.3,3l17.1,28.1L70.8,77.1z"/>
	<path fill="#fbf7ef" d="M85.5,25.4c-5.9-6.4-15.7-7.9-23.4-3.3C69.8,17.4,79.6,19,85.5,25.4z"/>
	<path fill="#fbf7ef" d="M10.9,106.1c8.4,10.4,23.5,13.1,35.1,5.7c11.6-7.4,15.5-22.2,9.6-34.2L10.9,106.1z"/>
	<path fill="#fbf7ef" d="M17.3,67C5.7,74.3,1.8,89.2,7.7,101.2l44.7-28.5C44,62.3,28.9,59.6,17.3,67z"/>
</g>
</svg>
