<?xml version="1.0" encoding="utf-8"?>
<!-- Generator: Adobe Illustrator 18.1.0, SVG Export Plug-In . SVG Version: 6.00 Build 0)  -->
<!DOCTYPE svg PUBLIC "-//W3C//DTD SVG 1.1//EN" "http://www.w3.org/Graphics/SVG/1.1/DTD/svg11.dtd">
<svg version="1.1" id="图层_1" xmlns="http://www.w3.org/2000/svg" xmlns:xlink="http://www.w3.org/1999/xlink" x="0px" y="0px"
	 viewBox="0 0 132 132" enable-background="new 0 0 132 132" xml:space="preserve">
<g>
	<path fill="#FFFFFF" d="M1,102.1c0.2-0.7,0.4-1.3,0.6-2c1-3.7,3.4-6.4,6.3-8.7c5.6-4.3,12-6.6,18.9-7.6c8.9-1.3,17.8-1,26.6,0
		c6.2,0.7,12.4,1.8,18.6,2.7c0.3,0,0.6-0.1,0.9-0.2c-0.2-0.2-0.5-0.4-0.8-0.5c-3.2-1-6-2.9-8.6-5c-0.5-0.4-0.6-1.2-0.8-1.9
		c-0.2-0.5-0.2-1.1-0.6-1.3c-5.6-4.7-9.2-10.8-12.3-17.3c-4.4-9.4-6.7-19.4-8-29.6c-0.3-2.4-0.5-4.9-0.3-7.3
		c0.3-3.4,2.3-5.7,5.6-6.9c0.6-0.2,1.3-0.5,1.9-0.7c3.4-0.8,6.2-3.2,9.4-4.3c0.3-0.1,0.6-0.6,0.7-1c0.8-2,3.1-3.2,5.3-2.8
		c1.8,0.3,3.4,2.3,3.5,4.3c0.1,1.7-0.6,2.9-2,3.8c-1.4,0.8-2.8,0.9-4.3,0.1c-0.4-0.2-0.9-0.4-1.3-0.3c-3.8,1.2-7.5,2.5-11.2,3.7
		c-3.6,1.1-4.4,2.8-4.2,6c0.2,3.3,0.9,6.6,1.3,9.9c1.1,8.1,3.5,15.9,6.7,23.3c2.6,6,6,11.5,10.8,16.1c0.5,0.5,1.1,0.8,1.8,0.8
		c0.8,0.1,1.8,0.4,2.4,1c1.7,1.6,3.7,2.6,5.8,3.4c2.8,1,5.3-0.3,7.7-1.7c0.9-0.5,1.6-1.4,2.5-2c0.6-0.4,1.4-0.5,2.2-0.8
		c0.6-0.2,1.2-0.3,1.7-0.6c4.6-3.9,7.7-9,10.3-14.4c4.1-8.4,6.2-17.3,7.8-26.3c0.5-2.7,0.9-5.4,1.1-8.1c0.3-2.9-0.6-5.4-3.9-6.4
		c-2-0.6-3.9-1.4-5.8-2c-1.9-0.6-3.9-1.1-5.8-1.5c-0.4-0.1-1,0.1-1.4,0.3c-2.4,0.9-5-0.2-5.9-2.5c-0.9-2.4,0.1-4.8,2.4-5.7
		c2.3-0.8,4.6,0,5.6,2.2c0.4,0.8,0.9,1.2,1.7,1.5c0.9,0.3,1.9,0.5,2.5,1c3,2.5,7.1,2.5,10.2,4.5c1.9,1.2,3.3,2.9,3.6,5.2
		c0.5,4-0.3,7.9-1,11.9c-1.3,7.5-2.8,14.9-5.5,22c-3.1,8-7.3,15.3-13.8,21.1c-0.3,0.2-0.5,0.6-0.6,1c-0.2,1.3-0.9,2.2-1.8,3
		c-2.5,2-5.3,3.5-8.3,4.5c-0.4,2.6-0.4,2.5,2,3.4c4.9,1.7,9.8,3.6,14.6,5.3c1.4,0.5,2.5,1.3,2.2,3c1.1,0.5,2.2,0.9,3.2,1.4
		c0.6,0.3,1,0.2,1.4-0.3c3-3.7,6.8-5.9,11.5-6.3c8.1-0.6,15.5,5,16.6,13.1c0.1,0.4,0.2,0.8,0.3,1.1c0,0.6,0,1.3,0,1.9
		c-0.1,0.4-0.2,0.8-0.3,1.2c-1,8.5-9.5,14.7-17.9,13.3c-10.1-1.7-15.5-12.1-12.2-20.6c0.1-0.3-0.1-0.9-0.4-1c-1-0.6-2-1.1-3-1.6
		c0,0.1,0,0.2,0,0.4c-1,0.1-2,0.4-2.9,0.1c-4.7-1.6-9.3-3.4-14-5.1c-0.4-0.1-0.8-0.2-1.2-0.3c-0.1,0.2-0.1,0.3-0.1,0.4
		c0,0.6,0,1.2-0.1,1.8c-0.3,9.7-4.9,16.8-13.1,21.7c-4.1,2.4-8.6,3.5-13.2,4.4c-10,1.9-20.1,1.8-30.1,0.2c-5.6-0.9-11-2.6-15.4-6.4
		c-2.9-2.5-5-5.5-5.7-9.4c-0.1-0.6-0.3-1.2-0.5-1.8C1,104.5,1,103.3,1,102.1z M38.5,118.4c2.5-0.2,7-0.5,11.5-1
		c5.2-0.6,10-2.3,14.5-5.1c4-2.6,6.7-6,7.8-10.6c0.6-2.3,0.5-4.6,0.9-7c0.2-1.3-0.4-1.7-1.6-2c-12.9-3.1-26-4.1-39.3-3.5
		c-4.3,0.2-8.6,0.9-12.7,2.6c-3.9,1.6-7.7,3.5-10.4,6.9c-2,2.5-2.6,5.2-1.4,8.3c0.7,2,1.9,3.7,3.4,5.1c2.5,2.4,5.7,3.4,8.9,4.4
		C25.4,118.2,31,118.2,38.5,118.4z M115.4,114.6c4.1,0,7-2.9,7-7c0-4-3.1-7-7.1-7c-3.8,0-7,3.3-7,7
		C108.3,111.6,111.4,114.6,115.4,114.6z"/>
	<path fill="#FFFFFF" d="M119.4,107.8c0,2.2-1.7,3.8-3.9,3.8c-2.1,0-3.8-1.7-3.8-3.9c0-2.2,1.7-3.8,3.9-3.8C117.7,104,119.4,105.7,119.4,107.8z"/>
</g>
</svg>
