<?xml version="1.0" encoding="utf-8"?>
<!-- Generator: Adobe Illustrator 18.1.0, SVG Export Plug-In . SVG Version: 6.00 Build 0)  -->
<!DOCTYPE svg PUBLIC "-//W3C//DTD SVG 1.1//EN" "http://www.w3.org/Graphics/SVG/1.1/DTD/svg11.dtd">
<svg version="1.1" id="图层_1" xmlns="http://www.w3.org/2000/svg" xmlns:xlink="http://www.w3.org/1999/xlink" x="0px" y="0px"
	 viewBox="0 0 132 132" enable-background="new 0 0 132 132" xml:space="preserve">
<path fill="#FFFFFF" d="M64.6,43.4c0.6-1.4,1-2.9,1.3-4.3c1.3-5.8,0.5-11.2-2.4-15.7l-1.7-2.6c-1.1-1.8-3.4-2.3-5.2-1.2c-1.8,1.1-2.3,3.4-1.2,5.2
	l0.4,0.6L33.6,39.6l-0.4-0.6c-1.1-1.8-3.4-2.3-5.2-1.2c-1.8,1.1-2.3,3.4-1.2,5.2l1.7,2.6c2.8,4.5,7.4,7.6,13.2,8.9
	c4.9,1.1,10.4,0.9,15.4-0.6c3.8-1.1,8-1.3,11.6-0.5c2.1,0.5,4.9,1.5,7,3.7L53.8,71c-0.5-1.4-0.7-2.8-0.7-4.2l17.3-10.9
	c-0.7-0.3-1.4-0.5-2.1-0.6c-1.6-0.4-3.3-0.5-5-0.4l-9,5.7c0.6-1.5,1.3-3,2.2-4.5c-2.9,0.8-6,1.1-9,1c-0.6,1.4-1,2.9-1.3,4.3
	c-1.3,5.8-0.5,11.2,2.4,15.7c2.8,4.5,7.4,7.6,13.2,8.9c4.9,1.1,10.3,0.9,15.4-0.6c3.8-1.1,8-1.3,11.6-0.5c2.1,0.5,4.9,1.5,7,3.7
	l-21.9,13.9c-0.5-1.4-0.7-2.8-0.7-4.2l17.3-10.9c-0.7-0.3-1.4-0.5-2.1-0.6c-1.6-0.4-3.3-0.5-5-0.4l-9,5.7c0.6-1.5,1.3-3,2.2-4.5
	c-2.9,0.8-6,1.1-9,1c-0.6,1.4-1,2.9-1.3,4.3c-1.3,5.8-0.5,11.2,2.4,15.7l1.7,2.6c1.1,1.8,3.4,2.3,5.2,1.2c1.8-1.1,2.3-3.4,1.2-5.2
	l-0.4-0.6l22.3-14.1l0.4,0.6c1.1,1.8,3.4,2.3,5.2,1.2c1.8-1.1,2.3-3.4,1.2-5.2l-1.7-2.6c-2.8-4.5-7.4-7.6-13.2-8.9
	c-4.9-1.1-10.4-0.9-15.4,0.6c-3.8,1.1-8,1.3-11.6,0.5c-2.1-0.5-4.9-1.5-7-3.7L78.2,61c0.5,1.4,0.7,2.8,0.7,4.2L61.7,76.2
	c0.7,0.3,1.4,0.5,2.1,0.6c1.6,0.4,3.3,0.5,5,0.4l9-5.7c-0.6,1.5-1.3,3-2.2,4.5c2.9-0.8,6-1.1,9-1c0.6-1.4,1-2.9,1.3-4.3
	c1.3-5.8,0.5-11.2-2.4-15.7c-2.8-4.5-7.4-7.6-13.2-8.9c-4.9-1.1-10.4-0.9-15.4,0.6c-3.8,1.1-8,1.3-11.6,0.5c-2.1-0.5-4.9-1.5-7-3.7
	l21.9-13.9c0.5,1.4,0.7,2.8,0.7,4.2L41.7,44.6c0.7,0.3,1.4,0.5,2.1,0.6c1.6,0.4,3.3,0.5,5,0.4l9-5.7c-0.6,1.5-1.3,3-2.2,4.5
	C58.6,43.7,61.6,43.4,64.6,43.4z"/>
</svg>
