<?xml version="1.0" encoding="utf-8"?>
<!-- Generator: Adobe Illustrator 18.1.0, SVG Export Plug-In . SVG Version: 6.00 Build 0)  -->
<!DOCTYPE svg PUBLIC "-//W3C//DTD SVG 1.1//EN" "http://www.w3.org/Graphics/SVG/1.1/DTD/svg11.dtd">
<svg version="1.1" id="图层_1" xmlns="http://www.w3.org/2000/svg" xmlns:xlink="http://www.w3.org/1999/xlink" x="0px" y="0px"
	 viewBox="0 0 132 132" enable-background="new 0 0 132 132" xml:space="preserve">
<path fill="#FFFFFF" d="M23.5,99.2c0-0.8,0-1.5,0-2.3c0-0.1,0.1-0.1,0.1-0.2c0.7-3.5,2.7-6.1,5.7-7.9c0.2-0.2,0.5-0.4,0.6-0.7
	c3.1-7.7,3.4-15.4,0.1-23.1c-0.2-0.4-0.6-0.9-1-1.1c-2.7-1.7-4.5-4.1-5.2-7.3c-0.1-0.4-0.2-0.8-0.3-1.3c0-0.8,0-1.5,0-2.3
	c0.1-0.2,0.2-0.5,0.2-0.7c0.3-2.2,1.2-4.2,2.7-5.8c3.3-3.4,7.2-4.3,11.7-3.3c0.8,0.2,1.4,0.2,1.8-0.7c0.4-0.7,0.8-1.3,1.3-1.9
	c0.5-0.7,0.5-1.4,0-2.2c-1.7-2.6-2.6-5.5-2-8.7c1.4-6.9,9-11.1,15.1-8.8c2.8,1.1,5.3,2.5,6.9,5.3c0.1,0.3,0.5,0.5,0.8,0.6
	c1.8,0.6,3.5,1.2,5.3,1.7c5.9,1.5,11.8,1.5,17.6-0.7c0.4-0.1,0.8-0.5,1-0.8c2.2-4.1,5.5-6.3,10.1-6.6c5.1-0.4,10.4,3.3,12,8.3
	c0.2,0.6,0.3,1.2,0.5,1.8c0,0.7,0,1.4,0,2.1c-0.1,0.5-0.3,1-0.4,1.5c-0.4,4.1-2.7,6.8-6,8.8c-0.3,0.2-0.7,0.6-0.8,1
	c-0.5,2.4-1.1,4.8-1.4,7.2c-0.6,4.9,0,9.7,2.1,14.1c0.2,0.5,0.7,1,1.1,1.3c2.7,1.7,4.4,4.1,5.1,7.2c0.1,0.3,0.2,0.7,0.3,1
	c0,1,0,2,0,3c-0.5,1.4-0.9,2.8-1.5,4.2c-1.9,4.5-7.6,8.1-14,6.7c-0.2,0-0.5,0-0.6,0.1c-0.6,1-1.1,2-1.6,3c-0.1,0.1,0.1,0.4,0.2,0.5
	c1.3,2.1,1.7,4.4,1.6,6.8c-0.2,4.3-2.9,10.5-9.6,12c-0.6,0.1-1.1,0.3-1.7,0.4c-0.6,0-1.1,0-1.7,0c-0.2-0.1-0.5-0.2-0.7-0.2
	c-3.2-0.7-6.1-2-8-4.8c-1-1.5-2.2-2.2-3.8-2.6c-0.4-0.1-0.9-0.3-1.3-0.4c-6.7-1.9-13.2-1.9-19.6,1c-0.4,0.2-0.8,0.4-1,0.7
	c-2.7,3.5-6.2,5.1-10.7,4.8c-4.9-0.3-9-3.4-10.4-8.2C23.8,100.9,23.7,100.1,23.5,99.2z M77.8,80.6c-0.3-0.1-0.4-0.1-0.5-0.2
	c-0.1,0-0.3-0.1-0.5-0.1c-5-0.7-10-0.2-14.8,1.5c-0.8,0.3-1.5,0.7-1.9,1.5c-0.4,0.6-0.9,1.1-1.4,1.6c-3.4,2.9-7.2,4-11.5,2.5
	c-0.7-0.2-1.1-0.1-1.5,0.5c-0.5,0.7-1,1.4-1.5,2.2c-0.1,0.2-0.1,0.7,0,0.9c0.5,1.8,1.6,3,3.5,3.4c0.7,0.1,1.4,0.5,2.1,0.7
	c6.5,1.9,13,2,19.5-0.3c0.6-0.2,1-0.5,1.3-1.1c0.8-1.6,1.9-3,3.4-3.9c1.2-0.7,1.7-1.7,2.1-3C76.6,84.6,77.2,82.6,77.8,80.6z
	 M86.1,43.8c0.4-0.9,0.9-1.7,1.3-2.6c0.1-0.1,0.1-0.4,0-0.4c-0.7-0.8-1.2-2-2.1-2.4c-7.7-3.2-15.5-3.7-23.3-0.6
	c-0.4,0.2-0.8,0.5-1.1,0.8c-1.2,1.5-2.5,2.7-4.3,3.5c-0.3,0.1-0.5,0.5-0.6,0.8c-0.6,2-1.1,3.9-1.6,5.9c-0.2,0.8-0.4,1.7-0.6,2.5
	c0.3,0.1,0.4,0.2,0.6,0.2c4.9,0.7,9.8,0.5,14.5-1c0.9-0.3,1.6-0.7,1.9-1.7c0.2-0.6,0.6-1,0.9-1.5C74.9,42.6,82.3,42,86.1,43.8z
	 M78.4,73.9c-0.7-2.5-1.3-4.9-1.9-7.3c-0.1-0.3-0.4-0.5-0.7-0.7c-2.1-1.2-3.8-2.8-5.2-4.9c-0.2-0.3-0.4-0.6-0.7-0.7
	c-4.8-1.6-9.7-2.6-14.8-2.3c-0.7,0-0.8,0.3-0.8,0.9c0.2,2.2,0.8,4.3,1.8,6.3c0.3,0.6,0.8,1.1,1.3,1.6c1,1,2.2,1.7,2.9,2.8
	c0.9,1.3,2,1.9,3.4,2.4c0.4,0.1,0.9,0.3,1.3,0.5C69.3,73.9,73.6,74.4,78.4,73.9z M92.4,45.4c-0.1,0-0.2,0-0.4,0
	c-0.1,0.3-0.3,0.6-0.4,0.8c-0.8,1.1-0.8,2.1-0.1,3.4c1.3,2.4,1.2,5.1,0.6,7.8c-0.8,3.5-2.6,6.1-5.6,8c-0.2,0.1-0.5,0.3-0.5,0.5
	c-0.7,2.1-1.3,4.3-2,6.4c0.1,0.1,0.3,0.2,0.4,0.3c0.5-0.4,1.2-0.6,1.4-1.1c1-2,2.5-3.5,4.3-4.8c0.3-0.2,0.7-0.6,0.8-0.9
	c2-4.8,3.2-9.9,2.5-15.2C93.3,48.8,92.8,47.1,92.4,45.4z M39.6,85.6c1.3-1.7,1.4-2.3,0.6-4c-0.9-2.2-1.6-4.5-1.2-7
	c0.5-3.5,2.6-6,5.4-8c0.4-0.3,0.7-0.7,0.9-1.1c0.6-1.3,1.1-2.6,1.5-3.9c0.2-0.6,0.3-1.2,0.5-1.8c-1.5-0.2-2.1,0.7-2.9,1.7
	c-0.9,1.1-2.1,2-3.2,3c-0.3,0.3-0.6,0.6-0.8,1c-1.8,4.7-2.7,9.5-2,14.5C38.8,81.9,39.3,83.7,39.6,85.6z M46.5,44.2
	c-1,1.1-1.7,2-1.5,3.3c0.2,1.2,1,1.9,2.5,2.1C47.2,47.8,46.9,46.1,46.5,44.2z M86,87.1c0.1,0,0.2,0,0.3,0.1c0.4-0.6,0.9-1.2,1.2-1.7
	c-0.5-0.6-0.9-1.1-1.3-1.6c-0.4-0.5-0.8-1-1.2-1.5c-0.1,0.1-0.2,0.1-0.3,0.2C85.1,84,85.6,85.6,86,87.1z"/>
</svg>
