<?xml version="1.0" encoding="utf-8"?>
<!-- Generator: Adobe Illustrator 18.1.0, SVG Export Plug-In . SVG Version: 6.00 Build 0)  -->
<!DOCTYPE svg PUBLIC "-//W3C//DTD SVG 1.1//EN" "http://www.w3.org/Graphics/SVG/1.1/DTD/svg11.dtd">
<svg version="1.1" id="图层_1" xmlns="http://www.w3.org/2000/svg" xmlns:xlink="http://www.w3.org/1999/xlink" x="0px" y="0px"
	 viewBox="0 0 132 132" enable-background="new 0 0 132 132" xml:space="preserve">
<g>
	<path fill="#FFFFFF" d="M24,52.7c2-0.1,3.8,0.6,5.5,1.4c2.7,1.3,5.9-0.3,6.3-3.2c0.1-0.6,0.4-1.3,0.8-1.7c1.6-1.5,3.3-2.8,5-4.2c1-0.8,2-1,3.2-0.4
		c0.9,0.4,1.9,0.8,2.9,1.1c1.2,0.4,1.5,0.2,2.1-0.9c0.4-0.7,0.8-1.4,1.3-1.9c1.4-1.4,2.5-3,2.9-4.9c0.5-2.5,0.7-5,1-7.5
		c-1.8-0.7-4.7-0.6-6.5,0c-2.3,0.8-3.4,2.7-3,5.1c0.1,0.6,0.3,1.1,0.4,1.8c-1.8-1.5-2.1-3.9-0.9-6.4c-0.3-0.2-0.6-0.5-1-0.7
		c-2-1.2-6.1-0.5-7.6,1.3c-0.5,0.6-0.8,1.3-0.9,2c-0.1,2.3-0.1,4.6,1.2,6.6c-1.5-0.2-1.6-0.3-2.6-3.9c-1.1,0.4-2.2,0.7-3.2,1.1
		c-0.4,0.1-0.8,0.4-1,0.7c-1.1,1.8-2,3.7-1.7,5.8c0.3,2,1.2,2.5,2.9,1.9c1-0.3,2-0.8,2.9-1.4c1.4-0.9,2.8-1.6,4.4-2
		c0.8-0.2,1.7-0.8,2.1-1.5c1.5-2.4,0.4-5.7-2.1-6.9c0,0,0-0.1,0-0.2c1.2-0.3,2.3,0.1,2.8,1.3c0.5,1.1,0.7,2.3,0.9,3.5
		c0.3,2.4-0.6,3.8-2.8,4.8c-2,0.9-4.1,1.9-6.2,2.7c-1.1,0.4-2.3,0.7-3.5,0.8c-1.2,0.1-2.2-0.8-2.4-2c-0.2-1-0.4-2-0.5-3
		c-0.6,0.1-1.3,0.3-2,0.4c-2.3,0.3-3.7,1.5-4.3,3.6c-0.2,0.6-0.4,1.2-0.6,1.9c-0.3,1.1-0.6,2.1-1,3.2c0,0.6,0,1.1,0,1.7
		c0.1,0.3,0.2,0.5,0.3,0.8c0.4,1,0.7,1.1,1.5,0.4C21.7,53.3,22.7,52.8,24,52.7z"/>
	<path fill="#FFFFFF" d="M112.2,47.9c-0.5-1.2-1.3-1.3-2-0.2c-0.5,0.8-0.8,1.7-1.3,2.6c-2.7,4.8-6.3,8.6-11.7,10.5c-1.3,0.5-2.5,1.2-3.6,2
		c-1,0.8-1,1.8-0.5,2.9c0.8,1.8,2.2,2.4,4.1,2.5c0.7,0.1,1.5,0.2,2.1,0.4c1.2,0.4,1.6,1.3,1,2.3c-0.5,0.9-1.2,1.8-2,2.5
		c-2.4,2.1-4.9,4-7.8,5.2c-1.5,0.6-3.2,1-4.8,1.3c-1.2,0.2-2.5,0.1-3.3-0.8c-2-2.2-2.5-4.5,0.8-6.2c0.2-0.1,0.4-0.2,0.5-0.3
		c0.9-0.9,1.8-1.7,2.5-2.6c0.3-0.4,0.3-1.3,0-1.7c-0.3-0.4-1.2-0.7-1.7-0.6c-0.9,0.2-1.8,0.7-2.6,1.2c-1.1,0.7-2,1.6-3,2.3
		c-1.1,0.8-2.3,1.5-3.5,2.3c-1.3,0.9-1.5,1.7-0.4,2.9c1.1,1.2,2.2,2.4,3.5,3.2c6.6,3.7,13.5,3.6,20.2,0.2c4.8-2.4,6.3-6.2,5-11.2
		c-0.2-0.7,0.2-0.9,0.6-1.2c3.9-3.2,6.8-7,8.1-11.8c0.2-0.7,0.3-1.4,0.5-2c0-1.2,0-2.4,0-3.5C112.8,49.4,112.6,48.6,112.2,47.9z"/>
	<path fill="#FFFFFF" d="M74.1,79.1c-2.6-2.3-3-5.2-1.7-8.4c0.7-1.7,1.5-3.5,2.3-5.2c0.6-1.3,1.6-2.3,3-2.9c0.9-0.4,1.8-0.7,2.7-1.1
		c5.4-2.4,10.2-5.6,13.9-10.2c1.1-1.4,1.9-3,2.2-4.8c0.2-1.5,0.5-3,0.8-4.5c0.3-1.2,0.9-1.4,2-0.8c0.5,0.3,0.9,0.7,1.3,1.2
		c0.7,0.8,1.4,1.8,2.2,2.6c0.3,0.3,1.2,0.6,1.3,0.5c0.4-0.4,0.7-1,0.6-1.5c-0.2-0.9-0.5-1.7-1-2.5c-2.2-3.5-4.2-7.1-5-11.2
		c-0.2-0.9-0.6-1.9-1.3-2.5c-2.6-2.6-5.8-4.3-9.3-5.5c-1.4-0.5-2-0.1-2.4,1.3c-0.6,1.8-1.1,3.6-1.7,5.3c0.8,1.5,1.7,3.1,2.5,4.7
		c0.1,0,0.2-0.2,0.4-0.3c1.4-0.9,3-1.1,4.5-0.5c3.4,1.3,4.2,4.5,3.4,7.1c-1.7,5.5-5.3,9.5-10.6,12c-1.6,0.7-2.8,1.4-2.9,3.4
		c0,1.8-1.4,3.1-2.4,3.2c0.4-1,1-2.1,1.3-3.2c0.3-1.2-0.4-1.7-1.6-1.3c-3.2,1.3-6.4,2-9.8,2.6c-2.8,0.5-3,0.8-3,3.5
		c0,0.1,0,0.2,0,0.4c0,2.1,0,2.1,2.2,2.5c2.6,0.6,3.5,3.1,1.7,5c-0.6,0.7-1.5,1.3-2.4,1.7c-1.7,0.7-2.6,1.9-2.9,3.7
		c-0.4,2-2.2,3-4.2,2.6c-1.1-0.2-2.2-0.4-3.3-0.5c0.5-0.4,1.1-0.7,1.7-0.7c0.6,0,1.3,0.2,2,0.3c0.7,0.1,1.4,0.2,1.7-0.6
		c0.4-0.8,0.9-1.5,1.1-2.3c0.6-1.6,1.6-2.8,3.3-3.4c1.2-0.4,2.2-1.3,2.4-2.6c0.1-0.4-0.2-1.2-0.6-1.4c-1.3-0.8-3-1.3-4.9,0
		c-0.9,0.6-2.1,1.2-3.2,1.2c-1.7,0.1-3.5-0.1-5.3-0.2c-0.3,0-0.7,0.1-0.8,0.3c-0.7,1.4-1.1,2.8-0.6,4.3c0.2,0.7,0.8,1.4,1.2,2
		c-3.2-0.4-3.9-3.5-1.5-7.3c-0.8-0.9-0.7-1.9,0-2.7c0.9-1,1.8-2.1,2.9-2.9c2-1.4,4.3-2.2,6.6-2.7c0.4-0.1,1.2-0.3,1.2-0.6
		c0.1-0.9,0.1-1.9-0.2-2.7c-0.1-0.3-1.2-0.5-1.8-0.5c-1.8,0.2-3.6,0.6-5.4,0.8c-6.5,1-11.4,4.3-14.5,10c-0.2,0.3-0.4,0.6-0.5,0.9
		c-1.9,4-1.5,7.7,2.4,10.1c1.7,1.1,3.6,1.9,5.4,2.7c3.2,1.4,6.5,2.6,9.7,4.1c3.8,1.8,7,4.2,9.3,7.7c3.2,4.8,3.6,10.2,3,15.7
		c-0.2,2.1-0.6,4.2-0.8,6.2c-0.1,1.3,0.2,1.6,1.6,1.5c2-0.1,4-0.3,6.1-0.5c0.1-2.3,0.2-4.4,0.3-6.6c0.3-5.8,0.6-11.6-0.3-17.3
		C78.1,85,77.1,81.7,74.1,79.1z"/>
	<path fill="#FFFFFF" d="M52.5,43c-1.8,2.1-3,4.5-2.8,7.5c0.2,3.2,1.6,3.5,4.2,3.2c0,0,0.1,0,0.1,0c2.5-0.5,5-1,7.4-1.6c2.7-0.7,5.4-1.4,8.1-2.1
		c-0.5-0.8-1.1-1.5-1.5-2.2c-1.4-2.4-1.2-4.2,0.6-6.3c1.8-2.1,4.1-3.4,6.3-4.9c4.1-2.7,6.7-6.4,8.7-10.6c0.1-0.3,0.2-0.6,0.3-1
		c0.4-1.8-0.7-4-2.3-4.8c-2.1-0.9-4-0.4-5.4,1.4c-0.2,0.3-0.4,0.7-0.7,1c-1.3,1.6-2.5,3.3-4,4.7c-1.6,1.5-2.8,3.3-3.7,5.3
		c-0.5,1.1-1.2,2.1-2.1,2.9c-1.5,1.6-3.2,3-4,5.1c-0.5,1.4-0.8,2.8-1.2,4.4c-0.6-0.8-0.7-1.7-0.6-2.7c0.3-2,1.3-3.6,2.6-5.1
		c1-1.1,2.1-2.2,3-3.4c0.7-0.8,1.2-1.7,1.7-2.7c1-1.8,1.9-3.5,3.4-4.9c1.4-1.2,2.5-2.7,3.6-4.2c0.9-1.2,0.4-2.3-1.1-2.6
		c-1-0.2-2-0.2-2.9-0.2c-1.3,0.1-2.2,0.7-2.6,2c-0.3,0.9-0.5,1.8-0.9,2.6c-0.3,0.7-0.7,1.4-1.2,2c-1.3,1.4-3,2.2-5.1,2.2
		c-2.7,0-4,1.2-4.5,3.7C56,32.4,56,33.2,56,34C56.3,37.5,54.7,40.3,52.5,43z"/>
	<path fill="#FFFFFF" d="M103.3,38.3c0.9,1.6,1.7,3.1,2.4,4.5c0.8,1.6,0.6,2.6-0.5,3.3c-1.4,0.9-2.4,0.8-3.7-0.6c-0.4-0.5-0.8-1-1.2-1.4
		c-0.4-0.6-0.9-1.1-1.3-1.7c-0.1,0-0.3,0-0.4,0c-0.2,1-0.6,1.9-0.7,2.9c-0.1,2.3-0.9,4.3-2.2,6.1c-1.6,2.4-3.8,4.3-6,6
		c-3.2,2.4-6.7,4.3-10.4,5.9c-3.6,1.6-4.8,4.8-5.7,8.1c-0.3,0.9,0.2,1.3,1.1,1c2.2-0.9,4.2-2,5.7-3.8c1-1.2,2.1-2,3.7-2.2
		c1.2-0.1,2.4,0.2,3.1,1.2c0.8,1,0.7,2.1,0.1,3.1c-0.7,1-1.6,1.8-2.5,2.6c-0.7,0.7-1.5,1.2-2.1,1.9c-1.1,1.2-0.3,2.9,0.7,3.4
		c1.2,0.5,2.5,0.7,3.8,0.3c4.5-1.2,7.9-4.1,11.1-7.3c0.3-0.3,0.5-1.1,0.4-1.3c-0.3-0.4-0.9-0.6-1.4-0.6c-2.4,0-3.9-1.5-5.3-3.1
		c-0.3-0.3-0.4-0.8-0.4-1.2c-0.2-1.4,0.2-2.6,1.4-3.5c1.6-1.1,3.3-2.2,5-3.1c5.5-2.8,9.3-6.9,10.8-12.8c0.9-3.7-0.9-6.6-4.5-7.5
		C104,38.4,103.7,38.4,103.3,38.3z"/>
	<path fill="#FFFFFF" d="M79.8,44.8c-3,3.3-7.1,5-11.1,6.6c-2.2,0.9-2.2,0.8-2.6,3c-0.2,1.4,0,1.6,1.4,1.3c4.4-0.9,8.8-2,12.9-3.6
		c3.5-1.4,6.8-3.2,9.4-6c1.9-2,3.3-4.2,3.7-7c0.2-1.4,0.1-2.9-0.9-4C91,33,88.2,33,86.2,34.8c-0.2,0.2-0.5,0.4-0.8,0.7
		c-0.2-2.2-0.3-4.3-2.7-5.5c-2.3,4.5-6.2,7.2-10.3,9.8c-0.8,0.5-1.5,1-2.2,1.6c-1.7,1.4-2.1,3.4-1.3,5.4c0.9,2.2,2.3,2.7,4.3,1.3
		c2-1.4,4-2.9,5.9-4.5c1.7-1.4,3.1-3,3.2-5.6c0.6,1.2,0.5,2.3,0,3.2C81.6,42.5,80.8,43.7,79.8,44.8z"/>
	<path fill="#FFFFFF" d="M47.5,55.9c0.4-0.5,0.8-1.1,0.8-1.7c0.1-1.8,0-3.6,0-5.5c0-0.9-0.5-1.5-1.4-1.8c-0.9-0.3-1.8-0.7-2.7-0.9
		c-0.7-0.1-1.6-0.1-2,0.3c-1.5,1.2-3,2.5-4.3,3.9c-1.4,1.6-0.9,2.9,1.1,3.7c0.7,0.3,1.5,0.4,2.1,0.7c1.5,0.7,2.1,2.1,1.3,3.7
		c-0.2-1.4-0.8-2.3-2-2.8c-1.2-0.5-2.3-1-3.4-1.6c-0.8-0.4-1.4-0.4-2,0.3c-0.8,0.9-1.8,1.5-3,1.4c-1.5-0.1-3-0.4-4.4-0.9
		c-1.1-0.4-2.2-1-3.4-0.9c-1.8,0.2-3,1.3-3.7,2.9c-0.6,1.4-0.1,2.6,0.9,3.6c0.7,0.7,1.5,1.3,2.4,1.8c3.1,1.8,6.4,2.9,9.9,3.6
		c2,0.4,3.7-0.1,5.3-1.2c0.7-0.5,1.3-1.1,1.9-1.7C43.2,60.6,45.4,58.3,47.5,55.9z"/>
	<path fill="#FFFFFF" d="M24.8,41.1c1.2,0.4,2.5-0.2,3.1-1.3c0.3-0.6,0.6-1.1,0.8-1.7c0.6-1.3,1.7-2,3.1-2.2c0.7-0.1,1.5-0.3,2.2-0.4
		c1-6.5,6.5-9,11.7-5.5c1.3-0.4,2.4-1.1,3.7-1.2c1.7-0.2,3.4-0.1,5.1,0c0.7,0,1.3-0.1,1.6-0.5c-0.4-0.7-0.8-1.3-1-1.9
		c-0.2-0.6-0.2-1.3-0.2-2c0.1-2.9-0.7-3.4-3.6-3.1c-0.2,0-0.3,0-0.5,0.1C40,23.7,31.2,28.9,24.9,37.9c-0.4,0.5-0.7,1.1-0.9,1.7
		C23.8,40.3,24.1,40.8,24.8,41.1z"/>
	<path fill="#FFFFFF" d="M57.7,27.1c0.9-0.1,1.8-0.3,2.7-0.3c2.9,0,4.7-1.4,5.5-4.2c0.7-2.6-0.2-3.7-3-3.6c-4.9,0.1-6.4,3.5-6.4,7.2
		C56.4,27,56.9,27.2,57.7,27.1z"/>
	<path fill="#FFFFFF" d="M63.4,58.2c-2.2,0.9-4.5,1.7-6.6,2.7c-0.8,0.4-1.5,1-2.1,1.7c-0.8,1-0.5,1.8,0.7,2.1c1,0.2,2,0.2,3,0.4c0,0,0-0.1,0-0.1
		c0.8,0,1.5,0,2.3-0.1c2.1-0.2,3.2-1.3,3.5-3.3c0.1-0.9,0.1-1.8,0.1-2.8C64.3,58.3,64.1,57.9,63.4,58.2z"/>
	<path fill="#FFFFFF" d="M102.2,36.5c0.1,0.2,0.4,0.3,0.6,0.3c0.8,0.1,1.7,0.1,2.6,0.2c0.2,0,0.4,0,0.7,0c0.7,0,0.9-0.4,0.5-0.9
		c-1.3-1.9-2.8-3.6-4.8-4.7c-0.3-0.2-0.8-0.2-1-0.1c-0.2,0.2-0.3,0.7-0.2,1C100.9,33.7,101.6,35.1,102.2,36.5z"/>
</g>
</svg>
