<?xml version="1.0" encoding="utf-8"?>
<!-- Generator: Adobe Illustrator 18.1.0, SVG Export Plug-In . SVG Version: 6.00 Build 0)  -->
<!DOCTYPE svg PUBLIC "-//W3C//DTD SVG 1.1//EN" "http://www.w3.org/Graphics/SVG/1.1/DTD/svg11.dtd">
<svg version="1.1" id="图层_1" xmlns="http://www.w3.org/2000/svg" xmlns:xlink="http://www.w3.org/1999/xlink" x="0px" y="0px"
	 viewBox="0 0 132 132" enable-background="new 0 0 132 132" xml:space="preserve">
<g>
	<path fill="#FFFFFF" d="M113.6,97.1c-0.4-1.7-0.9-3.3-1.3-5.1c-0.9,1.3-1.6,2.5-2.6,3.5c-4.7,4.9-10.3,7-17.1,5.8c-4.5-0.8-8.9-1.7-13.4-2.6
		c-0.8-0.2-1.1,0-1.3,0.8c-0.5,3,1.3,5.8,4.6,6.4c2.8,0.5,5.7,0.7,8.5,0.9c4.6,0.4,8.8,1.8,12.1,5.4c1.7,1.8,3.5,3.5,5.9,4.2
		c0.3,0,0.6,0,0.9,0c2.8-0.9,3.5-3.3,4.1-5.7c0.2-0.8,0.3-1.7,0.5-2.5c0-1.9,0-3.8,0-5.7C114.2,100.8,114,98.9,113.6,97.1z"/>
	<path fill="#FFFFFF" d="M52.6,98.8c-4.5,0.9-9,1.8-13.6,2.6c-2.6,0.4-5.3,0.6-7.9-0.2c-4.9-1.5-8.9-4.2-11.2-9.3c-0.5,2.1-1.1,3.9-1.4,5.7
		c-0.4,1.8-0.6,3.6-0.9,5.4c0,1.9,0,3.8,0,5.7c0.2,1.1,0.4,2.3,0.7,3.4c0.5,2,1.4,3.8,3.6,4.5c0.3,0,0.6,0,0.9,0
		c2.3-0.8,4.1-2.4,5.7-4.1c2-2.1,4.4-3.8,7.2-4.4c2.6-0.6,5.3-0.9,8-1.3c2.6-0.3,5.2-0.2,7.6-1.5c1.9-1,3.1-3.1,2.9-5.3
		C54,98.7,53.8,98.6,52.6,98.8z"/>
	<path fill="#FFFFFF" d="M60,75.7C60,75.7,59.9,75.7,60,75.7L60,75.7z"/>
	<path fill="#FFFFFF" d="M50.5,79.2C48,79,46,77.7,43.9,76.5c-2.3-1.2-4.6-2.9-7.4-2.6c-1.1,0.1-2.2,0.2-3.3,0.2c-1.5,0-2.9-0.5-3.7-1.9
		c-1-1.7-2-3.4-3-5c-0.5,1-1,2.2-1.5,3.5c-1.9,4.4-3.7,8.8-4.3,13.6c-0.9,6.7,2.9,12.8,9.4,14.8c3.9,1.2,7.9,1.2,11.9,0.3
		c3.7-0.8,7.3-1.7,11-2.5c1.7-0.4,3.2-1.3,4.1-2.8c0.8-1.3,1.5-2.8,1.9-4.2c1.2-4.6,1-9.4,1.3-14.1c-2.4,1.1-4.7,2.2-7,3.1
		C52.2,79.2,51.3,79.2,50.5,79.2z"/>
	<path fill="#FFFFFF" d="M60,75.7C60,75.7,60,75.8,60,75.7C60,75.8,60,75.8,60,75.7C60,75.8,60,75.8,60,75.7C60,75.8,60,75.8,60,75.7z"/>
	<path fill="#FFFFFF" d="M86.7,98.5c4.6,1.3,9.2,2.1,13.9,0.9c5.1-1.3,9-4.1,10.5-9.4c0.7-2.7,0.6-5.6-0.3-8.3c-1.5-4.8-3.3-9.5-5-14.2
		c-0.1-0.2-0.2-0.5-0.2-0.5c-0.9,1.5-1.7,3.1-2.6,4.5c-1.4,2.2-3.4,3-5.9,2.5c-2.7-0.5-5.1,0.2-7.4,1.6c-2,1.1-4,2.2-6.1,3.1
		c-2,0.9-4.1,0.7-6-0.5c-0.5-0.3-1.2-0.5-1.8-0.8c-1.2-0.5-2.4-1-3.7-1.6c0.1,3.2,0.2,6.7,0.5,10.1c0.2,2.4,0.7,4.8,1.8,7
		c1.3,2.4,3.2,3.8,6,4.2C82.4,97.5,84.6,97.9,86.7,98.5z"/>
	<path fill="#FFFFFF" d="M75.7,75.9c0.6,0.3,1.4,0.5,1.9,0.9c2,1.3,4,1.2,6,0.3c2.1-1,4.1-2,6.1-3.3c1.4-0.9,2.9-1.3,4.5-1.3c1.4,0,2.7,0,4.1,0
		c1.1,0,1.9-0.4,2.6-1.2c1.2-1.4,2-3,2.4-4.8c0.4-2.3,0.3-4.5-0.4-6.8c-2-6.7-6.1-11.9-11.4-16.3c-2.5-2.1-5.2-3.7-8.4-4.5
		c-1.9-0.5-3.7-0.5-5.4,0.8c-2.1,1.6-3.5,3.7-4.4,6.1C72.6,48,71.2,50,72,52.6c0.5,1.7,0.8,3.4,1.3,5.1c0.3,1,1,1.5,2.1,1.2
		c2.3-0.7,4.7-1.3,7-2c0.2-0.1,0.4-0.2,0.5-0.4c0.7-1.1,1.4-2.2,2-3.3c1.7-3.2,5.4-5.3,8.7-4.6c0,1,0,2.1,0,3.2
		c0,0.8-0.3,1.1-1.1,1.1c-2-0.1-3.4,1.2-4.4,2.7c-0.8,1.3-0.6,1.6,0.9,2c2.4,0.5,4.5,1.7,6,3.5c-1,1-2,2-3,3.1
		c-1.1-1.5-2.6-2.3-4.4-2.8c-1.8-0.4-3.6-0.7-5.5,0.1c1.7,1.6,3.5,2.9,5.8,2.7c0,1.5,0,2.9,0,4.3c-1.4,0.3-2.7-0.1-3.9-0.6
		c-2.2-1-4.1-2.3-5.7-4.2c-0.8-1-3-1-4-0.2c2,2.9,4.7,4.7,8.2,5.4c-0.3,1.4-0.6,2.7-0.9,3.8c-4.7-0.2-7.8-3.2-11.3-6
		C70.4,70.5,72.5,74.2,75.7,75.9z"/>
	<path fill="#FFFFFF" d="M50.4,72.6c-0.1-0.5-0.2-0.9-0.3-1.3c-0.6-2.6-0.6-2.7,2-3.5c2.4-0.8,4.2-2.3,5.3-4.6c-2.3-0.9-3.5-0.7-4.8,1.1
		c-1.5,2.1-3.7,3-6,3.9c-0.7,0.3-1.5,0.2-2.2,0.3c-0.6,0.1-0.8-0.3-0.8-0.8c0-0.9,0-1.8,0-2.7c0-0.6,0.2-0.9,0.8-0.8
		c2.3,0.2,3.7-1.4,5.4-2.6c-4-1.1-7.4-0.1-10.1,2.4c-1.1-1-2.1-1.9-3-2.7c1.9-2.4,4.8-3.4,7.7-4.2c-1.2-2.6-2.6-4.6-5.7-4.2
		c0-1.5,0-2.9,0-4.3c3.2-0.4,5.6,1.1,7.5,3.4c1,1.1,1.6,2.6,2.4,3.9c0.3,0.4,0.6,1,1,1.1c2.4,0.8,4.8,1.4,7.2,2.1
		c1.1,0.3,1.8-0.2,2.2-1.2c1.1-3.3,1.9-6.6,0.2-10c-0.1-0.3-0.2-0.6-0.4-0.9c-1-2.4-2.1-4.7-4-6.5c-1.3-1.3-2.8-1.8-4.6-1.5
		c-2.3,0.4-4.5,1.2-6.4,2.5C37.5,45.1,32.9,50.4,30,57c-1.4,3-2.1,6.2-1.6,9.5c0.4,2.1,1.2,4,2.8,5.4c1.2,1.1,2.7,0.8,4.2,0.7
		c3.2-0.2,5.9,0.6,8.6,2.4c1.9,1.2,4,2.3,6.2,2.7c3.3,0.7,6-1.3,8.3-3.3c2.1-1.9,2.5-4.8,2.9-7.7c-1.7,1.4-3.4,2.7-5,4
		C54.5,71.8,52.5,72.2,50.4,72.6z"/>
	<path fill="#FFFFFF" d="M79.3,70.6c0.5,0.1,1,0.5,1.2-0.3c0.3-0.8-0.3-0.8-0.8-1c-2.9-0.9-5-2.7-6.6-5.1c-1-1.6-0.8-2.3,1.1-2.6
		c0.9-0.1,1.8,0,2.7-0.3c0.8-0.2,1.3,0.1,1.8,0.5c1.2,1.1,2.5,2.2,3.7,3.3c1.2,1.1,2.7,1.2,4.2,1.4c0-0.5,0-0.8,0-1.1
		c-0.6-0.2-1.3-0.2-1.7-0.5c-1.8-1.2-3.5-2.5-5.2-3.8c-0.1-0.1,0.1-0.6,0.2-0.7c2-0.6,4-1.4,6.2-1c2.2,0.4,4.3,1.1,6.2,2.3
		c0.4-0.3,0.7-0.5,1.1-0.8c-2.4-2-5.3-2.5-8.3-3c0.5-0.8,1.1-1.5,1.3-2.3c0.7-2.4,2.6-3.7,4.7-4.7c0.7-0.4,0.8-0.7,0.5-1.4
		c-2.3,1-4.2,2.3-5.5,4.5c-0.5,0.9-1,1.9-1.6,2.8c-0.3,0.5-0.7,1.1-1.2,1.2c-2.4,0.8-4.8,1.5-7.3,2c-2.5,0.5-3.5-0.2-4.3-2.6
		c-0.5-1.5-0.7-3.2-1-4.8c-1.2-6.3-1.5-12.6-1.2-19c0.3-5.7,0.5-11.4,0.7-17.1c0-0.4,0-0.8,0-1.3c-2.8,0-5.5,0-8.2,0
		c0,0.3-0.1,0.6-0.1,0.8c0.1,4.2,0.3,8.3,0.4,12.5c0.3,7.6,0.5,15.2-0.7,22.8c-0.4,2.2-0.8,4.5-1.5,6.6c-0.6,1.9-1.7,2.4-3.6,2.1
		c-1.8-0.3-3.6-0.8-5.4-1.3c-2.4-0.6-3.9-2.1-4.9-4.4c-1.2-2.5-3.3-4.2-6.2-4.9c0,0.4,0,0.8,0,1.2c3.9,0.9,5.1,4.2,6.7,7.2
		c-2.9,0.7-5.7,1.1-8,3.1c0.2,0.2,0.2,0.3,0.3,0.4c0.1,0.1,0.3,0.2,0.4,0.3c3.8-2.1,7.6-3.2,11.9-1.5c1.1,0.4,1.2,0.6,0.4,1.4
		c-1.8,1.7-3.5,3.6-6.3,3.8c0,0.4,0,0.7,0.1,1.1c1.5-0.1,2.8-0.4,3.9-1.3c1.1-1,2.2-2.1,3.4-3.1c0.5-0.4,1.1-0.9,1.7-1
		c1.1,0,2.3,0.2,3.4,0.4c1.7,0.3,1.9,0.9,1.1,2.4c-1.5,2.7-3.8,4.5-6.7,5.3c-0.8,0.2-1.1,0.6-0.7,1.4c2.4-0.3,4.4-1.6,6.2-3.1
		c1.5-1.3,2.9-2.7,4.5-3.9c3.2-2.4,4.3-2.4,7.5,0c1.5,1.2,2.9,2.5,4.3,3.8C75.7,68.9,77.3,70.1,79.3,70.6z"/>
</g>
</svg>
