<?xml version="1.0" encoding="utf-8"?>
<!-- Generator: Adobe Illustrator 18.1.0, SVG Export Plug-In . SVG Version: 6.00 Build 0)  -->
<!DOCTYPE svg PUBLIC "-//W3C//DTD SVG 1.1//EN" "http://www.w3.org/Graphics/SVG/1.1/DTD/svg11.dtd">
<svg version="1.1" id="图层_1" xmlns="http://www.w3.org/2000/svg" xmlns:xlink="http://www.w3.org/1999/xlink" x="0px" y="0px"
	 viewBox="0 0 132 132" enable-background="new 0 0 132 132" xml:space="preserve">
<g>
	<path fill="#FFFFFF" d="M60.7,88.1c-0.7,1.3-2.1,2.1-3.5,2.1c-0.2,0-0.4,0-0.6,0c-1.6-0.2-3-1.4-3.3-3.1l-5.8-25.7l-5.4,10.3
		c-0.7,1.3-2,2.1-3.5,2.1H24.8c8.1,14,22.9,27.1,41.2,33.2c18.1-6.1,32.7-18.9,40.9-32.7H68.4L60.7,88.1z"/>
	<path fill="#FFFFFF" d="M103.8,30.5C83.1,15.1,66,37,66,37s-17.1-21.9-37.8-6.5c-11,8.2-12.5,21.7-7.2,35.3h15.2L45.5,48c0.8-1.5,2.4-2.3,4.1-2.1
		c1.7,0.2,3,1.4,3.4,3.1l5.9,26.1l3.7-6.7c0.7-1.3,2-2.1,3.5-2.1h44.9C116.3,52.5,115,38.8,103.8,30.5z"/>
</g>
</svg>
