<?xml version="1.0" encoding="utf-8"?>
<!-- Generator: Adobe Illustrator 18.1.0, SVG Export Plug-In . SVG Version: 6.00 Build 0)  -->
<!DOCTYPE svg PUBLIC "-//W3C//DTD SVG 1.1//EN" "http://www.w3.org/Graphics/SVG/1.1/DTD/svg11.dtd">
<svg version="1.1" id="图层_1" xmlns="http://www.w3.org/2000/svg" xmlns:xlink="http://www.w3.org/1999/xlink" x="0px" y="0px"
	 viewBox="0 0 132 132" enable-background="new 0 0 132 132" xml:space="preserve">
<g>
	<path fill="#FFFFFF" d="M59.7,102.4c0-0.7,0.1-1.3,0.4-1.9c-0.7,0.2-1.4,0.4-2.2,0.7h0c-26.4-7.2-30.7-26.7-30.7-41.6c0-7.4,0-21.5,0-21.5
		c-0.1,0,30.1-11.4,30.7-11.7v0c0.8,0.3,30.8,11.7,30.7,11.7c0,0,0,14.1,0,21.5c0,2.9-0.2,5.9-0.6,9c1.4,0.5,2.7,1.1,3.9,1.8
		l2.3-2.3c0.4-3.2,0.6-6.4,0.6-9.4c0-8.9,0-25.7,0-25.8c0.1,0-35.9-13.7-36.8-14v0C57.2,19.3,21,33,21,33c0,0,0,16.9,0,25.8
		c0,17.8,5.2,41.2,36.9,49.8h0c1.7-0.5,3.2-1,4.7-1.5c-0.5-0.2-1-0.6-1.4-1C60.3,105.1,59.7,103.8,59.7,102.4z"/>
	<path fill="#FFFFFF" d="M70.1,102.2c0,0.6-0.1,1.3-0.3,1.8c2.3-1.2,4.5-2.5,6.4-3.9c-0.9-0.4-1.8-0.9-2.7-1.4L70.1,102.2z"/>
	<polygon fill="#FFFFFF" points="57.9,19 57.9,19 57.9,19 	"/>
	<polygon fill="#FFFFFF" points="57.9,19 57.9,19 57.9,19 	"/>
	<path fill="#FFFFFF" d="M31.3,60.2c0,1.2,0,2.4,0.1,3.6h26.4V31.5c-0.8,0.3-26.6,10.1-26.6,10.1C31.3,41.6,31.3,53.8,31.3,60.2z"/>
	<path fill="#FFFFFF" d="M66.2,88.1h-4.9c-0.9,1-2.1,1.5-3.5,1.6v6.3h0c0,0,0,0,0,0h0c3.7-1,7-2.3,9.8-3.9C67,90.9,66.5,89.5,66.2,88.1z"/>
	<path fill="#FFFFFF" d="M57.9,63.8v15.7c1.4,0.1,2.7,0.7,3.6,1.8l4.8,0c0.4-2,1.2-4,2.4-5.8L65.1,72c-1.5,0.1-2.8-0.5-3.9-1.5
		c-1.8-1.8-2-4.7-0.5-6.7H57.9z"/>
	<path fill="#FFFFFF" d="M73.4,70.6c1.7-1.2,3.7-2,5.8-2.4v-4.3H69.1c0.7,1,1,2.2,1,3.4L73.4,70.6z"/>
	<polygon fill="#FFFFFF" points="57.9,100.5 57.9,100.5 57.9,100.5 	"/>
	<polygon fill="#FFFFFF" points="57.9,100.5 57.9,100.5 57.9,100.5 	"/>
	<path fill="#FFFFFF" d="M107.8,81.5c-1,0-1.9,0.5-2.5,1.3l-0.3,0.4h-7.5l-0.1-0.8c-0.4-2.3-1.3-4.5-2.7-6.4l-0.5-0.7l5.3-5.3l0.5,0.1
		c1,0.2,2.1-0.1,2.8-0.9c1.2-1.2,1.2-3.2,0-4.5c-1.2-1.2-3.3-1.2-4.5,0c-0.7,0.7-1,1.7-0.9,2.7l0.1,0.5l-3.7,3.8l-1.6,1.6l-0.7-0.5
		c-1.1-0.8-2.4-1.5-3.7-1.9c-0.9-0.3-1.8-0.6-2.7-0.7l-0.9-0.1v-3.2v-2.8v-1.5l0.4-0.3c0.8-0.6,1.3-1.6,1.3-2.6
		c0-0.8-0.3-1.6-0.9-2.2c-0.6-0.6-1.4-0.9-2.2-0.9c-1.7,0-3.2,1.4-3.2,3.2c0,1,0.5,1.9,1.3,2.5l0.4,0.3v1.5v6L80.3,70
		c-2.3,0.4-4.5,1.3-6.4,2.7l-0.7,0.5l-5.3-5.3l0.1-0.5c0.2-1-0.1-2.1-0.9-2.8c-0.4-0.4-0.9-0.6-1.4-0.8c-0.5-0.1-1.1-0.1-1.7,0
		c-0.5,0.1-1,0.4-1.4,0.8c-1.2,1.2-1.2,3.2,0,4.5c0.7,0.7,1.7,1,2.7,0.9l0.5-0.1l5.3,5.4l-0.5,0.7c-1.4,1.9-2.3,4.1-2.7,6.5
		l-0.1,0.9l-7.5,0l-0.3-0.4c-0.5-0.8-1.4-1.2-2.3-1.3c-0.1,0-0.2,0-0.3,0c-1.7,0-3.2,1.4-3.2,3.2c0,1.7,1.4,3.2,3.2,3.2
		c0.1,0,0.2,0,0.3,0c0.9-0.1,1.7-0.5,2.2-1.2l0.3-0.4h7.5L68,87c0.2,1.5,0.7,2.9,1.4,4.2c0.4,0.8,0.8,1.5,1.3,2.3l0.5,0.7l-3.1,3.1
		L66,99.4l-0.5-0.1c-1-0.2-2.1,0.1-2.8,0.9c-0.6,0.6-0.9,1.4-0.9,2.2s0.3,1.6,0.9,2.2c1.2,1.2,3.3,1.2,4.5,0c0.7-0.7,1-1.7,0.9-2.7
		l-0.1-0.5l5.3-5.4l0.7,0.5c1.3,0.9,2.7,1.6,4.1,2.1c0.8,0.2,1.5,0.5,2.3,0.6l0.9,0.1v7.5l-0.4,0.3c-0.8,0.6-1.3,1.6-1.3,2.6
		c0,1.7,1.4,3.2,3.2,3.2c1.7,0,3.2-1.4,3.2-3.2c0-1-0.5-1.9-1.3-2.5l-0.4-0.3v-7.6l0.8-0.1c2.3-0.4,4.5-1.3,6.4-2.7l0.7-0.5l5.3,5.3
		l-0.1,0.5c-0.2,1,0.1,2.1,0.9,2.8c1.2,1.2,3.3,1.2,4.5,0c1.2-1.2,1.2-3.2,0-4.5c-0.7-0.7-1.7-1-2.7-0.9l-0.5,0.1L94.2,94l0.5-0.7
		c1.4-1.9,2.3-4.1,2.7-6.5l0.1-0.9h7.5l0.3,0.4c0.6,0.8,1.6,1.4,2.6,1.4c1.7,0,3.2-1.4,3.2-3.2C111,82.9,109.6,81.5,107.8,81.5z
		 M88.5,85c-1.5,1.5-3.6,2.4-5.7,2.4l-0.3,0c-0.8,0-1.5,0.3-1.9,0.8c-0.5,0.5-0.8,1.2-0.8,1.8c0,0.7,0.3,1.4,0.8,1.8
		c1.1,1.1,1.1,2.8,0,3.9c-0.5,0.5-1.2,0.8-1.9,0.8c-0.7,0-1.4-0.3-1.9-0.8c-0.8-0.8-1.4-1.8-1.8-2.9C74.5,92,74.3,91,74.3,90
		c0-1.2,0.2-2.3,0.7-3.3c0.4-0.9,1-1.7,1.7-2.4c0.4-0.4,0.8-0.7,1.3-1c1.4-0.9,3.1-1.4,4.8-1.3c0.4,0,0.8-0.1,1.2-0.3
		c0.2-0.1,0.5-0.3,0.6-0.5c0.5-0.5,0.8-1.1,0.8-1.8c0-0.2,0-0.4-0.1-0.6c-0.1-0.5-0.3-0.9-0.7-1.2c-1.1-1.1-1.1-2.8,0-3.9
		c0.7-0.7,1.6-0.9,2.5-0.7c0.5,0.1,1,0.3,1.4,0.7c1.5,1.5,2.4,3.6,2.4,5.7C90.9,81.4,90.1,83.5,88.5,85z"/>
</g>
</svg>
