<?xml version="1.0" encoding="utf-8"?>
<!-- Generator: Adobe Illustrator 18.1.0, SVG Export Plug-In . SVG Version: 6.00 Build 0)  -->
<!DOCTYPE svg PUBLIC "-//W3C//DTD SVG 1.1//EN" "http://www.w3.org/Graphics/SVG/1.1/DTD/svg11.dtd">
<svg version="1.1" id="图层_1" xmlns="http://www.w3.org/2000/svg" xmlns:xlink="http://www.w3.org/1999/xlink" x="0px" y="0px"
	 viewBox="0 0 132 132" enable-background="new 0 0 132 132" xml:space="preserve">
<g>
	<path fill="#FFFFFF" d="M102.3,24.9c-3.5-1-7.2-0.2-9.9,1.8c-1.2-3.2-3.9-5.8-7.4-6.8c-6-1.7-12.3,1.7-14,7.7c-1.7,6,1.7,12.2,7.8,14
		c0.3,0.1,0.5,0.1,0.8,0.2l-1.9,6.3c2,3.1,3.4,6.7,4,10.4c1.3,7.5-0.4,15-4.9,21.2c-5.3,7.5-14.1,12-23.3,12c-0.6,0-1.1,0-1.6-0.1
		c-0.2,0.5-0.4,1-0.6,1.5c-1.7,6,1.7,12.2,7.7,14c3.5,1,7.2,0.2,9.9-1.8c1.2,3.2,3.9,5.8,7.4,6.8c6,1.7,12.3-1.7,14-7.7
		c1.7-6-1.7-12.2-7.8-14c-0.3-0.1-0.5-0.1-0.8-0.2l13.5-43.9c0.3,0.1,0.5,0.2,0.8,0.3c6,1.7,12.3-1.7,14-7.7
		C111.8,32.9,108.3,26.7,102.3,24.9z"/>
	<path fill="#FFFFFF" d="M52.6,88.1c8.1,0,15.7-3.9,20.3-10.5c3.8-5.4,5.4-12,4.2-18.5c-1.1-6.5-4.7-12.2-10.2-16c-4.2-3-9.2-4.6-14.4-4.6
		c-8.1,0-15.7,3.9-20.3,10.5c-3.8,5.4-5.4,12-4.2,18.5c0.9,5.3,3.5,10,7.3,13.6l-12,13.7c0,0-0.1,0.1-0.1,0.1l-0.5,0.6l0,0
		c-0.7,1-1.2,2.2-1.2,3.5c0,3.3,2.7,6,6,6c2.1,0,3.9-1,4.9-2.6l0,0L42.8,86C45.9,87.3,49.2,88.1,52.6,88.1L52.6,88.1z M41.4,79
		c-4.2-3-7-7.4-7.9-12.4c-0.9-5.1,0.3-10.1,3.3-14.3c3.6-5.1,9.5-8.1,15.8-8.1c4,0,7.9,1.2,11.1,3.5c4.2,3,7,7.4,7.9,12.4
		c0.9,5.1-0.3,10.1-3.3,14.3c-3.6,5.1-9.5,8.1-15.8,8.1C48.6,82.5,44.7,81.3,41.4,79z"/>
	<path fill="#FFFFFF" d="M69.7,60.5c-0.8-4.4-3.2-8.3-6.9-10.9c-2.9-2-6.2-3.1-9.7-3.1c-0.8,0-1.6,0.1-2.4,0.2l-9.2,28.8c0.6,0.6,1.2,1.1,1.9,1.5
		c2.9,2,6.2,3.1,9.7,3.1c5.5,0,10.6-2.6,13.8-7.1C69.4,69.3,70.4,64.9,69.7,60.5z M48.6,73.7c-0.8,0-1.4-0.6-1.4-1.4
		c0-0.8,0.6-1.4,1.4-1.4c0.8,0,1.4,0.6,1.4,1.4C50,73.1,49.4,73.7,48.6,73.7z M53,54.4c0-1,0.8-1.8,1.8-1.8c1,0,1.8,0.8,1.8,1.8
		c0,1-0.8,1.8-1.8,1.8C53.8,56.2,53,55.4,53,54.4z M57.1,69.3c-1.2,0-2.2-1-2.2-2.2c0-1.2,1-2.2,2.2-2.2c1.2,0,2.2,1,2.2,2.2
		C59.3,68.3,58.3,69.3,57.1,69.3z M61.8,66c-0.9,0-1.7-0.8-1.7-1.7c0-0.9,0.8-1.7,1.7-1.7c0.9,0,1.7,0.8,1.7,1.7
		C63.5,65.3,62.7,66,61.8,66z"/>
</g>
</svg>
