<?xml version="1.0" encoding="utf-8"?>
<!-- Generator: Adobe Illustrator 18.1.0, SVG Export Plug-In . SVG Version: 6.00 Build 0)  -->
<!DOCTYPE svg PUBLIC "-//W3C//DTD SVG 1.1//EN" "http://www.w3.org/Graphics/SVG/1.1/DTD/svg11.dtd">
<svg version="1.1" id="图层_1" xmlns="http://www.w3.org/2000/svg" xmlns:xlink="http://www.w3.org/1999/xlink" x="0px" y="0px"
	 viewBox="0 0 132 132" enable-background="new 0 0 132 132" xml:space="preserve">
<g>
	<path fill="#FFFFFF" d="M123.6,67.3c-0.3-0.3-7-8.1-17.4-15.9C92.1,40.7,78.6,35.2,66,35.2c-29.7,0-56.5,30.7-57.6,32c-1.1,1.2-0.9,3.1,0.2,4.2
		c1.1,1,27.8,25.3,57.4,25.3s56.2-24.3,57.4-25.3C124.5,70.4,124.7,68.5,123.6,67.3z M84.7,64.7c0,10.3-8.4,18.7-18.7,18.7
		S47.3,75,47.3,64.7C47.3,54.4,55.7,46,66,46S84.7,54.4,84.7,64.7z M66,90.8c-22.5,0-44.1-16.1-51-21.8c5.7-5.9,22.5-22.1,41.4-26.6
		c-8.6,3.7-14.6,12.3-14.6,22.3c0,13.4,10.9,24.2,24.2,24.2s24.2-10.9,24.2-24.2c0-10-6-18.5-14.6-22.3C94.5,46.9,111.3,63,117,69
		C110.1,74.7,88.5,90.8,66,90.8z"/>
	<circle fill="#FFFFFF" cx="66" cy="64.7" r="10.6"/>
</g>
</svg>
