<?xml version="1.0" encoding="utf-8"?>
<!-- Generator: Adobe Illustrator 18.0.0, SVG Export Plug-In . SVG Version: 6.00 Build 0)  -->
<!DOCTYPE svg PUBLIC "-//W3C//DTD SVG 1.1//EN" "http://www.w3.org/Graphics/SVG/1.1/DTD/svg11.dtd">
<svg version="1.1" id="图层_1" xmlns="http://www.w3.org/2000/svg" xmlns:xlink="http://www.w3.org/1999/xlink" x="0px" y="0px"
	 viewBox="0 0 880 1562" enable-background="new 0 0 880 1562" xml:space="preserve">
<g>
	<path fill="#FF0000" d="M416.4,921.6c0-7.8,0-9.3-0.1-10.9c-0.1-1.7-0.5-2.6-2.2-2.9c-0.4-0.1-1.3-0.2-2-0.2
		c-0.6,0-0.9-0.1-0.9-0.5c0-0.4,0.4-0.5,1.1-0.5c2.7,0,6,0.2,7.1,0.2c1.7,0,5.7-0.2,7.2-0.2c3.2,0,6.7,0.3,9.5,2.2
		c1.4,1,3.5,3.6,3.5,7c0,3.8-1.6,7.3-6.8,11.5c4.6,5.8,8.1,10.3,11.1,13.5c2.9,3,5,3.3,5.8,3.5c0.6,0.1,1,0.2,1.4,0.2
		s0.6,0.2,0.6,0.4c0,0.4-0.4,0.5-1,0.5h-4.9c-2.9,0-4.2-0.3-5.5-1c-2.2-1.2-4.2-3.6-7-7.6c-2-2.8-4.4-6.3-5.1-7.1
		c-0.3-0.3-0.6-0.4-0.9-0.4l-4.5-0.1c-0.3,0-0.4,0.1-0.4,0.4v0.7c0,4.8,0,8.9,0.3,11c0.2,1.5,0.5,2.6,2,2.8c0.8,0.1,1.9,0.2,2.5,0.2
		c0.4,0,0.6,0.2,0.6,0.4c0,0.4-0.4,0.5-1,0.5c-3,0-6.8-0.2-7.6-0.2c-1,0-4.2,0.2-6.3,0.2c-0.7,0-1-0.2-1-0.5c0-0.3,0.2-0.4,0.8-0.4
		c0.8,0,1.4-0.1,1.9-0.2c1-0.2,1.3-1.3,1.5-2.8c0.3-2.2,0.3-6.2,0.3-11V921.6z M422.5,925.7c0,0.6,0.1,0.8,0.5,0.9
		c1.1,0.4,2.6,0.5,3.9,0.5c2,0,2.7-0.2,3.6-0.9c1.5-1.1,3-3.5,3-7.7c0-7.3-4.8-9.4-7.9-9.4c-1.3,0-2.2,0.1-2.7,0.2
		c-0.4,0.1-0.5,0.3-0.5,0.7V925.7z"/>
	<path fill="#FF0000" d="M688.5,909.7l-7.7,0.2c-3,0.1-4.2,0.4-5,1.5c-0.5,0.8-0.8,1.4-0.9,1.8c-0.1,0.4-0.3,0.6-0.6,0.6
		c-0.4,0-0.5-0.3-0.5-0.8c0-0.8,1-5.5,1.1-5.9c0.2-0.7,0.3-1,0.6-1c0.4,0,0.9,0.5,2.2,0.6c1.5,0.2,3.5,0.3,5.1,0.3h20.4
		c1.6,0,2.8-0.2,3.6-0.3c0.8-0.2,1.2-0.3,1.4-0.3c0.4,0,0.4,0.3,0.4,1.1c0,1.1-0.2,4.6-0.2,6c-0.1,0.5-0.2,0.8-0.5,0.8
		c-0.4,0-0.5-0.3-0.6-1l0-0.6c-0.1-1.3-1.5-2.8-6.1-2.9l-6.5-0.2v21.1c0,4.7,0,8.8,0.3,11c0.2,1.4,0.5,2.6,2,2.8
		c0.7,0.1,1.8,0.2,2.6,0.2c0.6,0,0.8,0.2,0.8,0.4c0,0.4-0.4,0.5-1,0.5c-3.4,0-6.6-0.2-8.1-0.2c-1.2,0-4.4,0.2-6.5,0.2
		c-0.7,0-1-0.2-1-0.5c0-0.3,0.2-0.4,0.8-0.4c0.8,0,1.4-0.1,1.8-0.2c1-0.2,1.3-1.3,1.5-2.8c0.3-2.2,0.3-6.2,0.3-11V909.7z"/>
	<path fill="#FF0000" d="M290.4,921.6c0-7.8,0-9.3-0.1-10.9c-0.1-1.7-0.5-2.6-2.2-2.9c-0.4-0.1-1.3-0.2-2-0.2
		c-0.6,0-0.9-0.1-0.9-0.5s0.4-0.5,1.1-0.5c2.7,0,6,0.2,7.4,0.2c2.1,0,5.1-0.2,7.5-0.2c6.4,0,8.7,2.2,9.6,2.9
		c1.1,1.1,2.6,3.4,2.6,6.1c0,7.3-5.4,12.5-12.7,12.5c-0.3,0-0.8,0-1.1,0c-0.3-0.1-0.6-0.1-0.6-0.5c0-0.4,0.4-0.6,1.4-0.6
		c2.9,0,6.9-3.2,6.9-8.5c0-1.7-0.2-5.1-3-7.7c-1.9-1.7-4-2-5.1-2c-0.8,0-1.5,0.1-2,0.2c-0.3,0.1-0.4,0.4-0.4,1v20.6
		c0,4.7,0,8.8,0.3,11c0.2,1.4,0.5,2.6,2,2.8c0.7,0.1,1.9,0.2,2.6,0.2c0.6,0,0.8,0.2,0.8,0.4c0,0.4-0.4,0.5-1,0.5
		c-3.4,0-6.6-0.2-8-0.2c-1.2,0-4.4,0.2-6.5,0.2c-0.7,0-1-0.2-1-0.5c0-0.3,0.2-0.4,0.8-0.4c0.8,0,1.4-0.1,1.8-0.2
		c1-0.2,1.3-1.3,1.5-2.8c0.3-2.2,0.3-6.2,0.3-11V921.6z"/>
	<path fill="#FF0000" d="M744.3,940.7c-5-4.4-6.4-10.2-6.4-15.2c0-3.5,1.1-9.6,6-14.1c3.7-3.4,8.6-5.5,16.3-5.5
		c3.2,0,5.1,0.2,7.5,0.5c2,0.3,3.6,0.7,5.1,0.9c0.6,0.1,0.8,0.3,0.8,0.6c0,0.4-0.2,1-0.3,2.8c-0.1,1.7,0,4.5-0.1,5.6
		c-0.1,0.8-0.2,1.2-0.6,1.2c-0.4,0-0.5-0.4-0.5-1.1c-0.1-1.6-0.7-3.4-2-4.7c-1.7-1.8-5.7-3.2-10.4-3.2c-4.5,0-7.4,1.1-9.7,3.2
		c-3.8,3.4-4.7,8.3-4.7,13.3c0,12.2,9.3,18.3,16.2,18.3c4.6,0,7.4-0.5,9.4-2.9c0.9-1,1.5-2.5,1.7-3.4c0.2-0.8,0.3-1,0.7-1
		c0.4,0,0.5,0.4,0.5,0.8c0,0.6-0.6,5.1-1.1,6.8c-0.3,0.9-0.5,1.1-1.3,1.5c-2.1,0.8-6,1.2-9.3,1.2
		C754.9,946.3,748.9,944.8,744.3,940.7z"/>
	<path fill="#FF0000" d="M559.2,940.7c-5-4.4-6.4-10.2-6.4-15.2c0-3.5,1.1-9.6,6-14.1c3.7-3.4,8.6-5.5,16.3-5.5
		c3.2,0,5.1,0.2,7.5,0.5c1.9,0.3,3.6,0.7,5.1,0.9c0.6,0,0.8,0.3,0.8,0.6c0,0.4-0.2,1-0.3,2.8c-0.1,1.7-0.1,4.5-0.2,5.6
		c-0.1,0.8-0.2,1.2-0.6,1.2c-0.4,0-0.5-0.4-0.5-1.1c-0.1-1.6-0.7-3.4-2-4.7c-1.7-1.8-5.7-3.2-10.4-3.2c-4.5,0-7.4,1.1-9.7,3.2
		c-3.8,3.4-4.7,8.3-4.7,13.3c0,12.2,9.3,18.3,16.2,18.3c4.6,0,7.4-0.5,9.4-2.9c0.9-1,1.5-2.5,1.7-3.4c0.2-0.8,0.3-1,0.7-1
		c0.4,0,0.5,0.4,0.5,0.8c0,0.6-0.6,5.1-1.1,6.8c-0.3,0.9-0.5,1.1-1.3,1.5c-2.1,0.8-6,1.2-9.3,1.2
		C569.8,946.3,563.9,944.8,559.2,940.7z"/>
	<path fill="#FF0000" d="M380.3,932.2c-0.3,0-0.4,0.1-0.5,0.4L377,940c-0.5,1.3-0.8,2.5-0.8,3.1c0,0.9,0.5,1.6,2.1,1.6h0.8
		c0.6,0,0.8,0.1,0.8,0.4c0,0.4-0.3,0.5-0.9,0.5c-1.6,0-3.9-0.2-5.5-0.2c-0.6,0-3.4,0.2-6.1,0.2c-0.7,0-1-0.1-1-0.5
		c0-0.3,0.2-0.4,0.6-0.4c0.5,0,1.2,0,1.6-0.1c2.4-0.3,3.3-2.1,4.4-4.6l12.9-32.3c0.6-1.5,0.9-2.1,1.4-2.1c0.5,0,0.8,0.5,1.3,1.6
		c1.2,2.8,9.5,23.8,12.8,31.6c2,4.6,3.4,5.4,4.5,5.6c0.8,0.2,1.5,0.2,2.2,0.2c0.4,0,0.7,0.1,0.7,0.4c0,0.4-0.5,0.5-2.4,0.5
		c-1.9,0-5.6,0-9.7-0.1c-0.9,0-1.5,0-1.5-0.4c0-0.3,0.2-0.4,0.7-0.5c0.4-0.1,0.7-0.6,0.5-1.2l-4.1-10.9c-0.1-0.3-0.3-0.4-0.5-0.4
		H380.3z M390.8,929.6c0.3,0,0.3-0.2,0.3-0.3l-4.6-12.7c-0.1-0.2-0.1-0.5-0.3-0.5c-0.2,0-0.3,0.3-0.3,0.5l-4.7,12.7
		c0,0.2,0,0.4,0.2,0.4H390.8z"/>
	<path fill="#FF0000" d="M522.6,932.2c-0.3,0-0.4,0.1-0.5,0.4l-2.8,7.4c-0.5,1.3-0.8,2.5-0.8,3.1c0,0.9,0.5,1.6,2.1,1.6h0.8
		c0.6,0,0.8,0.1,0.8,0.4c0,0.4-0.3,0.5-0.9,0.5c-1.6,0-3.9-0.2-5.5-0.2c-0.6,0-3.4,0.2-6.1,0.2c-0.7,0-1-0.1-1-0.5
		c0-0.3,0.2-0.4,0.6-0.4c0.5,0,1.2-0.1,1.6-0.1c2.4-0.3,3.3-2.1,4.4-4.6l12.9-32.3c0.6-1.5,0.9-2.1,1.4-2.1c0.5,0,0.8,0.5,1.3,1.6
		c1.2,2.8,9.5,23.8,12.8,31.7c2,4.6,3.4,5.3,4.5,5.6c0.8,0.1,1.5,0.2,2.2,0.2c0.4,0,0.7,0.1,0.7,0.4c0,0.4-0.5,0.5-2.4,0.5
		c-1.8,0-5.6,0-9.7-0.1c-0.9-0.1-1.5-0.1-1.5-0.4c0-0.3,0.2-0.4,0.7-0.5c0.4-0.1,0.7-0.6,0.5-1.2l-4.1-10.9
		c-0.1-0.3-0.3-0.4-0.5-0.4H522.6z M533.1,929.6c0.3,0,0.3-0.2,0.3-0.3l-4.6-12.7c-0.1-0.2-0.1-0.5-0.3-0.5c-0.2,0-0.3,0.3-0.3,0.5
		l-4.7,12.7c0,0.2,0,0.4,0.2,0.4H533.1z"/>
	<path fill="#FF0000" d="M790.5,932.2c-0.3,0-0.4,0.1-0.5,0.4l-2.8,7.4c-0.5,1.3-0.8,2.5-0.8,3.1c0,0.9,0.5,1.6,2.1,1.6h0.8
		c0.6,0,0.8,0.1,0.8,0.4c0,0.4-0.3,0.5-0.9,0.5c-1.6,0-3.9-0.2-5.5-0.2c-0.6,0-3.4,0.2-6.1,0.2c-0.7,0-1-0.1-1-0.5
		c0-0.3,0.2-0.4,0.6-0.4c0.5,0,1.2,0,1.6-0.1c2.4-0.3,3.3-2.1,4.4-4.6l12.9-32.3c0.6-1.5,0.9-2.1,1.4-2.1c0.5,0,0.8,0.5,1.3,1.6
		c1.2,2.8,9.5,23.8,12.8,31.6c2,4.6,3.4,5.4,4.5,5.6c0.8,0.2,1.5,0.2,2.2,0.2c0.4,0,0.7,0.1,0.7,0.4c0,0.4-0.5,0.5-2.4,0.5
		c-1.8,0-5.6,0-9.7-0.1c-0.9,0-1.5,0-1.5-0.4c0-0.3,0.2-0.4,0.7-0.5c0.4-0.1,0.7-0.6,0.5-1.2l-4.1-10.9c-0.1-0.3-0.3-0.4-0.5-0.4
		H790.5z M801,929.6c0.3,0,0.3-0.2,0.3-0.3l-4.6-12.7c0-0.2-0.1-0.5-0.3-0.5c-0.2,0-0.3,0.3-0.3,0.5l-4.7,12.7c0,0.2,0,0.4,0.2,0.4
		H801z"/>
	<path fill="#FF0000" d="M834.1,930.6c0,6.6,0,10.1,1.1,11.1c0.9,0.8,2.2,1.1,6.2,1.1c2.7,0,4.7,0,6-1.4c0.6-0.7,1.2-2.1,1.3-3.1
		c0.1-0.5,0.2-0.8,0.6-0.8c0.4,0,0.4,0.3,0.4,0.9c0,0.6-0.4,4.4-0.8,5.9c-0.3,1.1-0.6,1.4-3.2,1.4c-3.7,0-6.4-0.1-8.7-0.2
		c-2.3-0.1-4.2-0.2-6.3-0.2c-0.6,0-1.7,0-2.9,0c-1.2,0-2.5,0.1-3.6,0.1c-0.7,0-1-0.2-1-0.5c0-0.3,0.2-0.4,0.8-0.4
		c0.8,0,1.4-0.1,1.8-0.2c1-0.2,1.3-1.3,1.5-2.8c0.3-2.2,0.3-6.2,0.3-11v-9.1c0-7.8,0-9.3-0.1-10.9c-0.1-1.7-0.5-2.6-2.2-2.9
		c-0.4-0.1-1-0.2-1.7-0.2c-0.6,0-0.9-0.1-0.9-0.5c0-0.4,0.4-0.5,1.1-0.5c2.4,0,5.7,0.2,7,0.2c1.2,0,5-0.2,7-0.2
		c0.7,0,1.1,0.1,1.1,0.5c0,0.4-0.3,0.5-0.9,0.5c-0.6,0-1.4,0.1-2,0.2c-1.4,0.3-1.8,1.1-1.9,2.9c-0.1,1.6-0.1,3.1-0.1,10.9V930.6z"/>
	<path fill="#FF0000" d="M719.4,921.6c0-7.8,0-9.3-0.1-10.9c-0.1-1.7-0.6-2.6-1.8-2.9c-0.6-0.2-1.2-0.2-1.9-0.2
		c-0.5,0-0.8-0.1-0.8-0.5c0-0.3,0.4-0.4,1.2-0.4c2,0,5.2,0.2,6.7,0.2c1.3,0,4.3-0.2,6.3-0.2c0.7,0,1.1,0.1,1.1,0.4
		c0,0.4-0.3,0.5-0.8,0.5c-0.5,0-0.9,0.1-1.5,0.2c-1.4,0.3-1.8,1.1-1.9,2.9c-0.1,1.6-0.1,3.1-0.1,10.9v9.1c0,5,0,9.1,0.2,11.3
		c0.2,1.4,0.5,2.3,2.1,2.5c0.7,0.1,1.9,0.2,2.6,0.2c0.6,0,0.8,0.2,0.8,0.4c0,0.4-0.4,0.5-1,0.5c-3.4,0-6.6-0.2-8-0.2
		c-1.2,0-4.4,0.2-6.5,0.2c-0.7,0-1-0.2-1-0.5c0-0.3,0.2-0.4,0.8-0.4c0.8,0,1.4-0.1,1.8-0.2c1-0.2,1.3-1.1,1.5-2.6
		c0.3-2.2,0.3-6.2,0.3-11.2V921.6z"/>
	<path fill="#FF0000" d="M858.6,945c-0.8-0.4-1-0.6-1-1.7c0-2.8,0.2-5.9,0.3-6.7c0.1-0.8,0.2-1.3,0.6-1.3c0.5,0,0.5,0.5,0.5,0.9
		c0,0.7,0.2,1.8,0.5,2.6c1.1,3.8,4.2,5.2,7.4,5.2c4.6,0,6.9-3.1,6.9-5.9c0-2.5-0.8-4.9-5-8.2l-2.4-1.8c-5.7-4.4-7.6-8-7.6-12.2
		c0-5.7,4.7-9.7,11.9-9.7c3.3,0,5.5,0.5,6.8,0.9c0.5,0.1,0.7,0.3,0.7,0.6c0,0.7-0.2,2.2-0.2,6.2c0,1.1-0.2,1.5-0.6,1.5
		c-0.4,0-0.5-0.3-0.5-0.9c0-0.5-0.3-2.1-1.3-3.4c-0.8-1-2.3-2.5-5.6-2.5c-3.8,0-6.1,2.2-6.1,5.3c0,2.4,1.2,4.2,5.5,7.4l1.4,1.1
		c6.2,4.7,8.4,8.2,8.4,13.1c0,3-1.1,6.5-4.8,9c-2.6,1.6-5.5,2.1-8.2,2.1C863.1,946.3,860.8,946,858.6,945z"/>
	<path fill="#FF0000" d="M601.6,921.6c0-7.8,0-9.3-0.1-10.9c-0.1-1.7-0.5-2.6-2.2-2.9c-0.4-0.1-1.3-0.2-2-0.2
		c-0.6,0-0.9-0.1-0.9-0.5c0-0.4,0.4-0.5,1.1-0.5c1.4,0,2.9,0.1,4.2,0.1c1.3,0.1,2.5,0.1,3.2,0.1c1.6,0,11.9,0,12.9,0
		c1-0.1,1.8-0.2,2.2-0.3c0.2-0.1,0.6-0.2,0.8-0.2c0.2,0,0.3,0.2,0.3,0.5c0,0.4-0.3,1-0.4,3.3c-0.1,0.5-0.2,2.8-0.3,3.4
		c0,0.3-0.2,0.6-0.5,0.6c-0.4,0-0.5-0.3-0.5-0.7c0-0.4-0.1-1.2-0.3-1.9c-0.4-0.9-0.9-1.5-3.4-1.8c-0.9-0.1-6.3-0.2-7.3-0.2
		c-0.3,0-0.4,0.2-0.4,0.5v13c0,0.4,0.1,0.6,0.4,0.6c1.1,0,7,0,8.2-0.1c1.2-0.1,2-0.2,2.5-0.8c0.4-0.4,0.6-0.7,0.8-0.7
		c0.2,0,0.4,0.1,0.4,0.4c0,0.3-0.2,1.1-0.4,3.8c-0.1,1-0.2,3.1-0.2,3.4c0,0.4,0,1-0.5,1c-0.4,0-0.5-0.2-0.5-0.5c0-0.5,0-1.2-0.2-1.9
		c-0.3-1-1-1.8-2.9-2c-1-0.1-6.1-0.1-7.3-0.1c-0.3,0-0.3,0.2-0.3,0.5v4.1c0,1.8,0,6.5,0,8c0.1,3.5,0.9,4.3,6.2,4.3
		c1.3,0,3.5,0,4.8-0.6c1.3-0.6,2-1.7,2.3-3.8c0.1-0.6,0.2-0.8,0.6-0.8c0.4,0,0.4,0.4,0.4,0.9c0,1.2-0.4,4.7-0.7,5.7
		c-0.4,1.3-0.8,1.3-2.8,1.3c-3.9,0-6.7-0.1-8.9-0.1c-2.2-0.1-3.8-0.2-5.4-0.2c-0.6,0-1.7,0-2.9,0c-1.2,0-2.5,0.1-3.5,0.1
		c-0.7,0-1-0.2-1-0.5c0-0.3,0.2-0.4,0.8-0.4c0.8,0,1.4-0.1,1.9-0.2c1-0.2,1.3-1.3,1.5-2.8c0.3-2.2,0.3-6.2,0.3-11V921.6z"/>
	<path fill="#FF0000" d="M634.2,921.3c0-7.7,0-9.1-0.1-10.8c-0.1-1.7-0.5-2.5-2.2-2.9c-0.4-0.1-1.3-0.2-2-0.2
		c-0.6,0-0.9-0.1-0.9-0.5s0.4-0.5,1.1-0.5c2.7,0,5.9,0.2,7.4,0.2c1.2,0,4.4-0.2,6.3-0.2c0.8,0,1.1,0.1,1.1,0.5s-0.3,0.5-0.8,0.5
		c-0.6,0-0.9,0.1-1.5,0.2c-1.4,0.3-1.8,1.1-1.9,2.9c-0.1,1.6-0.1,3-0.1,10.8v7.1c0,7.4,1.5,10.5,4,12.5c2.3,1.9,4.6,2.1,6.4,2.1
		c2.2,0,5-0.7,7-2.7c2.8-2.8,3-7.4,3-12.6v-6.3c0-7.7,0-9.1-0.1-10.8c-0.1-1.7-0.5-2.5-2.2-2.9c-0.4-0.1-1.3-0.2-1.8-0.2
		c-0.6,0-0.9-0.1-0.9-0.5s0.4-0.5,1.1-0.5c2.6,0,5.8,0.2,5.8,0.2c0.6,0,3.8-0.2,5.8-0.2c0.7,0,1.1,0.1,1.1,0.5s-0.3,0.5-0.9,0.5
		c-0.6,0-0.9,0.1-1.5,0.2c-1.4,0.3-1.8,1.1-1.9,2.9c-0.1,1.6-0.1,3-0.1,10.8v5.4c0,5.6-0.6,11.6-4.8,15.3c-3.6,3.1-7.3,3.7-10.6,3.7
		c-2.7,0-7.6-0.2-11.3-3.5c-2.6-2.3-4.5-6.1-4.5-13.5V921.3z"/>
	<path fill="#FF0000" d="M463.4,907.4c0.2-0.9,0.5-1.3,0.9-1.3c0.4,0,0.7,0.3,1.4,1.6l13.9,28.7l13.8-29c0.4-0.8,0.7-1.2,1.1-1.2
		c0.5,0,0.8,0.5,0.9,1.6l4.6,31.4c0.5,3.2,1,4.7,2.5,5.1c1.5,0.5,2.5,0.5,3.2,0.5c0.5,0,0.8,0,0.8,0.4c0,0.4-0.6,0.5-1.3,0.5
		c-1.3,0-8.3-0.1-10.3-0.3c-1.2-0.1-1.5-0.2-1.5-0.6c0-0.3,0.2-0.4,0.6-0.6c0.3-0.1,0.5-0.8,0.3-2.2l-3.1-22.4h-0.2l-11.1,23.1
		c-1.2,2.4-1.4,2.8-1.9,2.8c-0.5,0-1-1-1.8-2.5c-1.2-2.3-5.2-10.1-5.8-11.5c-0.5-1.1-3.5-7.5-5.3-11.3h-0.2l-2.6,20.2
		c-0.1,0.9-0.2,1.6-0.2,2.4c0,1,0.7,1.4,1.5,1.6c0.9,0.2,1.6,0.3,2.1,0.3c0.4,0,0.8,0.1,0.8,0.4c0,0.4-0.5,0.5-1.2,0.5
		c-2.1,0-4.4-0.1-5.3-0.1c-1,0-3.4,0.1-5,0.1c-0.5,0-0.9-0.1-0.9-0.5c0-0.3,0.3-0.4,0.8-0.4c0.4,0,0.8,0,1.5-0.2
		c1.4-0.3,1.8-2.3,2.1-4L463.4,907.4z"/>
	<path fill="#FF0000" d="M350.8,923c0.2,0,0.3-0.1,0.3-0.4v-1.1c0-7.9,0-9.3-0.1-11c-0.1-1.8-0.5-2.6-2.2-3c-0.4-0.1-1.3-0.2-2-0.2
		c-0.6,0-0.9-0.1-0.9-0.5c0-0.4,0.4-0.5,1.1-0.5c2.8,0,6.1,0.2,7.4,0.2c1.2,0,4.5-0.2,6.5-0.2c0.7,0,1.1,0.1,1.1,0.5
		c0,0.4-0.3,0.5-0.9,0.5c-0.4,0-0.9,0.1-1.5,0.2c-1.4,0.3-1.8,1.1-1.9,3c-0.1,1.6-0.1,3.1-0.1,11v9.1c0,4.8,0,8.8,0.3,11.1
		c0.2,1.4,0.5,2.6,2,2.8c0.7,0.1,1.9,0.2,2.6,0.2c0.6,0,0.8,0.1,0.8,0.4c0,0.4-0.4,0.5-1,0.5c-3.4,0-6.6-0.2-8.1-0.2
		c-1.2,0-4.4,0.2-6.5,0.2c-0.7,0-1.1-0.2-1.1-0.5c0-0.3,0.2-0.4,0.8-0.4c0.8,0,1.4-0.1,1.9-0.2c1-0.2,1.3-1.4,1.5-2.9
		c0.3-2.2,0.3-6.3,0.3-11v-4.6c0-0.2-0.1-0.3-0.3-0.3H331c-0.2,0-0.3,0.1-0.3,0.3v4.6c0,4.8,0,8.8,0.3,11.1c0.2,1.4,0.5,2.6,2,2.8
		c0.7,0.1,1.9,0.2,2.6,0.2c0.6,0,0.8,0.1,0.8,0.4c0,0.4-0.4,0.5-1,0.5c-3.4,0-6.6-0.2-8.1-0.2c-1.2,0-4.5,0.2-6.5,0.2
		c-0.7,0-1-0.2-1-0.5c0-0.3,0.2-0.4,0.8-0.4c0.8,0,1.4-0.1,1.9-0.2c1-0.2,1.3-1.4,1.5-2.9c0.3-2.2,0.3-6.3,0.3-11v-9.1
		c0-7.9,0-9.3-0.1-11c-0.1-1.8-0.5-2.6-2.2-3c-0.4-0.1-1.3-0.2-2-0.2c-0.6,0-0.9-0.1-0.9-0.5c0-0.4,0.4-0.5,1.1-0.5
		c2.8,0,6,0.2,7.4,0.2c1.2,0,4.5-0.2,6.5-0.2c0.7,0,1.1,0.1,1.1,0.5c0,0.4-0.3,0.5-0.9,0.5c-0.4,0-0.9,0.1-1.5,0.2
		c-1.4,0.3-1.8,1.1-1.9,3c-0.1,1.6-0.1,3.1-0.1,11v1.1c0,0.3,0.2,0.4,0.3,0.4H350.8z"/>
	<g>
		<path fill="#FF0000" d="M225.1,841.6c0.2,8.2,1.6,10.9,3.7,11.6c1.8,0.6,3.8,0.7,5.4,0.7c1.2,0,1.8,0.2,1.8,0.8c0,0.8-0.9,1-2.4,1
			c-6.8,0-11-0.3-13-0.3c-0.9,0-5.9,0.3-11.3,0.3c-1.4,0-2.3-0.1-2.3-1c0-0.6,0.6-0.8,1.7-0.8c1.4,0,3.2-0.1,4.7-0.5
			c2.7-0.8,3.1-3.9,3.2-13l1-61.9c0-2.1,0.3-3.6,1.4-3.6c1.2,0,2.1,1.4,3.9,3.3c1.3,1.4,17.2,18.4,32.4,33.6
			c7.1,7.1,21.2,22.2,23,23.8h0.5l-1-47c-0.1-6.4-1-8.4-3.6-9.4c-1.6-0.6-4.1-0.6-5.5-0.6c-1.3,0-1.7-0.3-1.7-1
			c0-0.8,1.1-0.9,2.7-0.9c5.4,0,10.5,0.3,12.7,0.3c1.2,0,5.1-0.3,10.3-0.3c1.4,0,2.4,0.1,2.4,0.9c0,0.6-0.6,1-1.9,1
			c-1,0-1.9,0-3.1,0.3c-2.9,0.8-3.8,3-3.9,8.9l-1.1,66c0,2.3-0.4,3.2-1.4,3.2c-1.2,0-2.4-1.1-3.6-2.3c-6.6-6.3-20-20-30.9-30.8
			c-11.4-11.3-23-24.4-24.9-26.4h-0.3L225.1,841.6z"/>
		<path fill="#FF0000" d="M314.9,816.3c0-17.9,11.8-41,43.2-41c26,0,42.3,15.2,42.3,39.1c0,23.9-16.7,42.9-43.3,42.9
			C327,857.3,314.9,834.8,314.9,816.3z M385.7,818.3c0-23.4-13.5-38-30.7-38c-12,0-25.7,6.7-25.7,32.7c0,21.8,12,39,32.1,39
			C368.7,852,385.7,848.5,385.7,818.3z"/>
		<path fill="#FF0000" d="M422.4,787c-2.4-5.7-4.2-6.9-7.9-7.9c-1.6-0.4-3.2-0.4-4.1-0.4c-0.9,0-1.2-0.3-1.2-1
			c0-0.8,1.2-0.9,2.7-0.9c5.5,0,11.5,0.3,15.2,0.3c2.6,0,7.6-0.3,12.9-0.3c1.3,0,2.4,0.2,2.4,0.9c0,0.7-0.6,1-1.6,1
			c-1.7,0-3.2,0.1-4.1,0.7c-0.7,0.5-1,1.3-1,2.2c0,1.4,0.9,4.3,2.4,8.1l18,47.5h0.4c4.5-11.5,18.1-45.2,20.6-52.1
			c0.5-1.4,0.9-2.9,0.9-3.9c0-0.8-0.4-1.7-1.4-2c-1.3-0.4-2.8-0.5-4.2-0.5c-0.9,0-1.8-0.1-1.8-0.8c0-0.8,0.9-1,2.9-1
			c5.2,0,9.6,0.3,11,0.3c1.8,0,6.7-0.3,9.8-0.3c1.4,0,2.2,0.2,2.2,0.9c0,0.7-0.6,1-1.7,1c-1,0-3.2,0-5.1,1.2
			c-1.4,0.9-2.9,2.7-5.7,9.4c-4.1,9.8-6.9,15.5-12.5,28.4c-6.7,15.3-11.6,26.7-13.9,31.9c-2.7,6.1-3.3,7.7-4.8,7.7
			c-1.4,0-2-1.5-4-6.4L422.4,787z"/>
		<path fill="#FF0000" d="M519.2,828.5c-0.5,0-0.7,0.2-0.9,0.8l-5.7,15c-1,2.6-1.6,5.1-1.6,6.4c0,1.9,0.9,3.2,4.2,3.2h1.6
			c1.2,0,1.6,0.2,1.6,0.8c0,0.8-0.6,1-1.8,1c-3.4,0-7.8-0.3-11.1-0.3c-1.1,0-6.9,0.3-12.3,0.3c-1.4,0-2-0.2-2-1
			c0-0.6,0.4-0.8,1.3-0.8c1,0,2.4-0.1,3.2-0.2c4.8-0.6,6.8-4.2,8.9-9.4l26.3-65.7c1.3-3,1.9-4.2,2.9-4.2c1,0,1.6,0.9,2.6,3.3
			c2.5,5.8,19.3,48.4,25.9,64.3c4,9.4,7,10.9,9.2,11.4c1.6,0.3,3.1,0.4,4.4,0.4c0.8,0,1.4,0.1,1.4,0.8c0,0.8-1,1-4.8,1
			c-3.8,0-11.4,0-19.8-0.2c-1.9-0.1-3.1-0.1-3.1-0.8c0-0.6,0.4-0.8,1.5-0.9c0.7-0.2,1.5-1.2,0.9-2.4l-8.4-22.2
			c-0.2-0.5-0.5-0.7-1-0.7H519.2z M540.5,823.3c0.5,0,0.6-0.3,0.5-0.6l-9.4-25.8c-0.1-0.4-0.2-0.9-0.5-0.9c-0.3,0-0.5,0.5-0.6,0.9
			l-9.6,25.7c-0.1,0.4,0,0.7,0.4,0.7H540.5z"/>
		<path fill="#FF0000" d="M601.9,807.1c0-15.9,0-18.8-0.2-22.2c-0.2-3.5-1-5.2-4.5-6c-0.8-0.2-2.6-0.3-4.1-0.3c-1.2,0-1.8-0.2-1.8-1
			c0-0.7,0.8-0.9,2.3-0.9c5.5,0,12.1,0.3,14.3,0.3c3.6,0,11.5-0.3,14.7-0.3c6.6,0,13.6,0.6,19.2,4.5c2.9,2,7.1,7.3,7.1,14.3
			c0,7.7-3.2,14.9-13.8,23.4c9.3,11.7,16.5,21,22.7,27.5c5.9,6.1,10.2,6.8,11.7,7.1c1.2,0.2,2.1,0.3,2.9,0.3c0.8,0,1.2,0.3,1.2,0.8
			c0,0.8-0.7,1-2,1H662c-5.9,0-8.5-0.5-11.2-2c-4.5-2.4-8.5-7.3-14.3-15.4c-4.2-5.8-9-12.9-10.4-14.4c-0.5-0.6-1.1-0.7-1.9-0.7
			l-9.1-0.2c-0.5,0-0.8,0.2-0.8,0.8v1.5c0,9.7,0,18,0.5,22.4c0.3,3,1,5.3,4.1,5.7c1.6,0.2,3.9,0.4,5.1,0.4c0.8,0,1.3,0.3,1.3,0.8
			c0,0.7-0.7,1-2.1,1c-6.1,0-13.8-0.3-15.4-0.3c-2,0-8.6,0.3-12.7,0.3c-1.4,0-2.1-0.3-2.1-1c0-0.5,0.4-0.8,1.7-0.8
			c1.6,0,2.8-0.2,3.8-0.4c2.1-0.4,2.6-2.7,3-5.7c0.5-4.4,0.5-12.7,0.5-22.3V807.1z M614.3,815.3c0,1.2,0.2,1.6,0.9,1.9
			c2.2,0.7,5.3,1.1,7.9,1.1c4.2,0,5.5-0.4,7.4-1.8c3.1-2.3,6.2-7.1,6.2-15.7c0-14.9-9.8-19.1-16-19.1c-2.6,0-4.5,0.1-5.5,0.4
			c-0.7,0.2-0.9,0.6-0.9,1.5V815.3z"/>
		<path fill="#FF0000" d="M707.4,782.6l-15.6,0.4c-6.1,0.2-8.6,0.7-10.1,3c-1.1,1.6-1.6,2.8-1.8,3.7c-0.2,0.8-0.5,1.3-1.2,1.3
			c-0.7,0-0.9-0.5-0.9-1.7c0-1.7,2-11.2,2.2-12c0.3-1.4,0.6-2,1.3-2c0.8,0,1.9,1,4.5,1.3c3,0.3,7,0.5,10.5,0.5h41.4
			c6.7,0,9.2-1.1,10.1-1.1c0.7,0,0.8,0.6,0.8,2.2c0,2.2-0.3,9.4-0.3,12.1c-0.1,1-0.3,1.7-0.9,1.7c-0.8,0-1-0.5-1.2-2.1l-0.1-1.1
			c-0.2-2.7-3-5.7-12.4-5.9l-13.2-0.3v42.9c0,9.6,0,17.9,0.5,22.4c0.3,2.9,0.9,5.2,4.1,5.6c1.5,0.2,3.8,0.4,5.3,0.4
			c1.1,0,1.7,0.3,1.7,0.8c0,0.7-0.8,1-2,1c-6.9,0-13.5-0.3-16.4-0.3c-2.4,0-9,0.3-13.2,0.3c-1.4,0-2.1-0.3-2.1-1
			c0-0.5,0.4-0.8,1.7-0.8c1.6,0,2.8-0.2,3.8-0.4c2.1-0.4,2.7-2.7,3-5.7c0.5-4.4,0.5-12.7,0.5-22.3V782.6z"/>
		<path fill="#FF0000" d="M783,807.1c0-15.9,0-18.8-0.2-22.2c-0.2-3.5-1.3-5.3-3.6-5.9c-1.2-0.3-2.5-0.4-3.8-0.4
			c-1.1,0-1.7-0.2-1.7-1.1c0-0.6,0.8-0.8,2.5-0.8c4,0,10.6,0.3,13.6,0.3c2.6,0,8.8-0.3,12.8-0.3c1.4,0,2.2,0.2,2.2,0.8
			c0,0.8-0.6,1.1-1.7,1.1c-1,0-1.9,0.1-3.1,0.3c-2.8,0.5-3.7,2.3-3.9,6c-0.2,3.4-0.2,6.3-0.2,22.2v18.4c0,10.2,0,18.4,0.4,22.9
			c0.3,2.8,1,4.7,4.2,5.1c1.5,0.2,3.8,0.4,5.3,0.4c1.2,0,1.7,0.3,1.7,0.8c0,0.7-0.8,1-2,1c-6.9,0-13.5-0.3-16.3-0.3
			c-2.4,0-9,0.3-13.2,0.3c-1.4,0-2.1-0.3-2.1-1c0-0.5,0.4-0.8,1.7-0.8c1.6,0,2.8-0.2,3.8-0.4c2.1-0.4,2.7-2.2,3-5.2
			c0.5-4.4,0.5-12.7,0.5-22.8V807.1z"/>
		<path fill="#FF0000" d="M837.4,854.5c-1.7-0.7-2-1.2-2-3.5c0-5.7,0.4-12,0.5-13.7c0.1-1.6,0.4-2.7,1.2-2.7c0.9,0,1,1,1,1.8
			c0,1.4,0.4,3.6,0.9,5.4c2.3,7.7,8.5,10.6,15,10.6c9.4,0,14-6.4,14-11.9c0-5.1-1.6-10-10.2-16.7l-4.8-3.8
			c-11.5-9-15.5-16.3-15.5-24.8c0-11.5,9.6-19.8,24.2-19.8c6.8,0,11.2,1,13.9,1.8c1,0.2,1.5,0.5,1.5,1.2c0,1.4-0.4,4.4-0.4,12.6
			c0,2.3-0.3,3.1-1.2,3.1c-0.7,0-1-0.6-1-1.9c0-0.9-0.5-4.2-2.7-6.9c-1.6-2-4.6-5.1-11.4-5.1c-7.7,0-12.4,4.5-12.4,10.8
			c0,4.8,2.4,8.5,11.1,15.1l2.9,2.2c12.6,9.7,17.2,16.7,17.2,26.7c0,6.1-2.3,13.3-9.9,18.2c-5.2,3.4-11.1,4.3-16.6,4.3
			C846.6,857.3,841.9,856.5,837.4,854.5z"/>
		<g>
			<path fill="#FF0000" d="M64.7,862.7c-58-4.4-75.7-37.8-56.2-75.4c10.5-20.2,26.5-42,7.4-62.1c-0.5-0.7-0.1-1.1,0.7-0.7
				C60,741.8,37.4,776.8,30,791.2c-14.6,28.5-5.3,63.2,34.7,70.6C65.6,862.1,65.5,862.8,64.7,862.7z"/>
			<path fill="#FF0000" d="M72.5,830.9l9.8-121.3l-23,0l12.4,121.4C71.7,831.7,72.4,831.7,72.5,830.9z"/>
			<path fill="#FF0000" d="M98.7,769.8c14.3,11.3,37.7,74-19.4,92c-0.9,0.2-0.8,0.9,0,0.9c90.8-11.4,59.6-76.5,20.1-93.6
				C98.4,768.6,97.9,769.2,98.7,769.8z"/>
		</g>
	</g>
</g>
</svg>
