<?xml version="1.0" encoding="utf-8"?>
<!-- Generator: Adobe Illustrator 18.1.0, SVG Export Plug-In . SVG Version: 6.00 Build 0)  -->
<svg version="1.1" xmlns="http://www.w3.org/2000/svg" xmlns:xlink="http://www.w3.org/1999/xlink" x="0px" y="0px"
	 viewBox="0 0 188 51" enable-background="new 0 0 188 51" xml:space="preserve">
<g>
	<path fill="#007B9A" d="M89,45.5c0-1.7,0-2,0-2.3c0-0.4-0.1-0.5-0.5-0.6c-0.1,0-0.3,0-0.4,0c-0.1,0-0.2,0-0.2-0.1
		c0-0.1,0.1-0.1,0.2-0.1c0.6,0,1.3,0,1.5,0c0.4,0,1.2,0,1.5,0c0.7,0,1.4,0.1,2,0.5c0.3,0.2,0.7,0.8,0.7,1.5c0,0.8-0.3,1.6-1.4,2.5
		c1,1.2,1.7,2.2,2.4,2.9c0.6,0.6,1.1,0.7,1.2,0.7c0.1,0,0.2,0,0.3,0s0.1,0,0.1,0.1c0,0.1-0.1,0.1-0.2,0.1h-1c-0.6,0-0.9-0.1-1.2-0.2
		c-0.5-0.3-0.9-0.8-1.5-1.6c-0.4-0.6-0.9-1.4-1.1-1.5c-0.1-0.1-0.1-0.1-0.2-0.1l-1,0c-0.1,0-0.1,0-0.1,0.1v0.2c0,1,0,1.9,0.1,2.4
		c0,0.3,0.1,0.6,0.4,0.6c0.2,0,0.4,0,0.5,0c0.1,0,0.1,0,0.1,0.1c0,0.1-0.1,0.1-0.2,0.1c-0.6,0-1.5,0-1.6,0c-0.2,0-0.9,0-1.3,0
		c-0.1,0-0.2,0-0.2-0.1c0-0.1,0-0.1,0.2-0.1c0.2,0,0.3,0,0.4,0c0.2,0,0.3-0.3,0.3-0.6c0.1-0.5,0.1-1.3,0.1-2.3V45.5z M90.2,46.4
		c0,0.1,0,0.2,0.1,0.2c0.2,0.1,0.6,0.1,0.8,0.1c0.4,0,0.6,0,0.8-0.2c0.3-0.2,0.6-0.7,0.6-1.7c0-1.6-1-2-1.7-2c-0.3,0-0.5,0-0.6,0
		c-0.1,0-0.1,0.1-0.1,0.2V46.4z"/>
	<path fill="#007B9A" d="M147.1,43l-1.6,0c-0.6,0-0.9,0.1-1.1,0.3c-0.1,0.2-0.2,0.3-0.2,0.4c0,0.1-0.1,0.1-0.1,0.1
		c-0.1,0-0.1-0.1-0.1-0.2c0-0.2,0.2-1.2,0.2-1.3c0-0.1,0.1-0.2,0.1-0.2c0.1,0,0.2,0.1,0.5,0.1c0.3,0,0.7,0.1,1.1,0.1h4.4
		c0.4,0,0.6,0,0.8-0.1c0.2,0,0.3-0.1,0.3-0.1c0.1,0,0.1,0.1,0.1,0.2c0,0.2,0,1,0,1.3c0,0.1,0,0.2-0.1,0.2c-0.1,0-0.1-0.1-0.1-0.2
		l0-0.1c0-0.3-0.3-0.6-1.3-0.6l-1.4,0v4.5c0,1,0,1.9,0.1,2.4c0,0.3,0.1,0.5,0.4,0.6c0.2,0,0.4,0,0.6,0c0.1,0,0.2,0,0.2,0.1
		c0,0.1-0.1,0.1-0.2,0.1c-0.7,0-1.4,0-1.7,0c-0.3,0-0.9,0-1.4,0c-0.1,0-0.2,0-0.2-0.1c0-0.1,0-0.1,0.2-0.1c0.2,0,0.3,0,0.4,0
		c0.2,0,0.3-0.3,0.3-0.6c0.1-0.5,0.1-1.3,0.1-2.3V43z"/>
	<path fill="#007B9A" d="M62,45.5c0-1.7,0-2,0-2.3c0-0.4-0.1-0.5-0.5-0.6c-0.1,0-0.3,0-0.4,0c-0.1,0-0.2,0-0.2-0.1
		c0-0.1,0.1-0.1,0.2-0.1c0.6,0,1.3,0,1.6,0c0.5,0,1.1,0,1.6,0c1.4,0,1.9,0.5,2,0.6c0.2,0.2,0.6,0.7,0.6,1.3c0,1.6-1.1,2.7-2.7,2.7
		c-0.1,0-0.2,0-0.2,0c-0.1,0-0.1,0-0.1-0.1c0-0.1,0.1-0.1,0.3-0.1c0.6,0,1.5-0.7,1.5-1.8c0-0.4,0-1.1-0.6-1.7
		c-0.4-0.4-0.8-0.4-1.1-0.4c-0.2,0-0.3,0-0.4,0c-0.1,0-0.1,0.1-0.1,0.2v4.4c0,1,0,1.9,0.1,2.4c0,0.3,0.1,0.5,0.4,0.6
		c0.2,0,0.4,0,0.6,0c0.1,0,0.2,0,0.2,0.1c0,0.1-0.1,0.1-0.2,0.1c-0.7,0-1.4,0-1.7,0c-0.3,0-0.9,0-1.4,0c-0.1,0-0.2,0-0.2-0.1
		c0-0.1,0-0.1,0.2-0.1c0.2,0,0.3,0,0.4,0c0.2,0,0.3-0.3,0.3-0.6c0.1-0.5,0.1-1.3,0.1-2.3V45.5z"/>
	<path fill="#007B9A" d="M159,49.6c-1.1-0.9-1.4-2.2-1.4-3.2c0-0.7,0.2-2,1.3-3c0.8-0.7,1.8-1.2,3.5-1.2c0.7,0,1.1,0,1.6,0.1
		c0.4,0.1,0.8,0.2,1.1,0.2c0.1,0,0.2,0.1,0.2,0.1c0,0.1,0,0.2-0.1,0.6c0,0.4,0,1,0,1.2c0,0.2,0,0.3-0.1,0.3c-0.1,0-0.1-0.1-0.1-0.2
		c0-0.3-0.2-0.7-0.4-1c-0.4-0.4-1.2-0.7-2.2-0.7c-1,0-1.6,0.2-2.1,0.7c-0.8,0.7-1,1.8-1,2.8c0,2.6,2,3.9,3.5,3.9c1,0,1.6-0.1,2-0.6
		c0.2-0.2,0.3-0.5,0.4-0.7c0-0.2,0.1-0.2,0.1-0.2c0.1,0,0.1,0.1,0.1,0.2c0,0.1-0.1,1.1-0.2,1.5c-0.1,0.2-0.1,0.2-0.3,0.3
		c-0.4,0.2-1.3,0.3-2,0.3C161.3,50.8,160,50.5,159,49.6z"/>
	<path fill="#007B9A" d="M119.5,49.6c-1.1-0.9-1.4-2.2-1.4-3.2c0-0.7,0.2-2,1.3-3c0.8-0.7,1.8-1.2,3.5-1.2c0.7,0,1.1,0,1.6,0.1
		c0.4,0.1,0.8,0.2,1.1,0.2c0.1,0,0.2,0.1,0.2,0.1c0,0.1,0,0.2-0.1,0.6c0,0.4,0,1,0,1.2c0,0.2,0,0.3-0.1,0.3c-0.1,0-0.1-0.1-0.1-0.2
		c0-0.3-0.2-0.7-0.4-1c-0.4-0.4-1.2-0.7-2.2-0.7c-1,0-1.6,0.2-2.1,0.7c-0.8,0.7-1,1.8-1,2.8c0,2.6,2,3.9,3.5,3.9c1,0,1.6-0.1,2-0.6
		c0.2-0.2,0.3-0.5,0.4-0.7c0-0.2,0.1-0.2,0.1-0.2c0.1,0,0.1,0.1,0.1,0.2c0,0.1-0.1,1.1-0.2,1.5c-0.1,0.2-0.1,0.2-0.3,0.3
		c-0.4,0.2-1.3,0.3-2,0.3C121.8,50.8,120.5,50.5,119.5,49.6z"/>
	<path fill="#007B9A" d="M81.2,47.8C81.2,47.8,81.2,47.8,81.2,47.8l-0.7,1.7c-0.1,0.3-0.2,0.5-0.2,0.7c0,0.2,0.1,0.3,0.4,0.3H81
		c0.1,0,0.2,0,0.2,0.1c0,0.1-0.1,0.1-0.2,0.1c-0.4,0-0.8,0-1.2,0c-0.1,0-0.7,0-1.3,0c-0.1,0-0.2,0-0.2-0.1c0-0.1,0-0.1,0.1-0.1
		c0.1,0,0.3,0,0.3,0c0.5-0.1,0.7-0.4,0.9-1l2.8-6.9c0.1-0.3,0.2-0.4,0.3-0.4c0.1,0,0.2,0.1,0.3,0.4c0.3,0.6,2,5.1,2.7,6.8
		c0.4,1,0.7,1.1,1,1.2c0.2,0,0.3,0,0.5,0c0.1,0,0.1,0,0.1,0.1c0,0.1-0.1,0.1-0.5,0.1c-0.4,0-1.2,0-2.1,0c-0.2,0-0.3,0-0.3-0.1
		c0-0.1,0-0.1,0.2-0.1c0.1,0,0.2-0.1,0.1-0.3l-0.9-2.3c0-0.1-0.1-0.1-0.1-0.1H81.2z M83.5,47.2C83.5,47.2,83.5,47.2,83.5,47.2
		l-0.9-2.8c0,0,0-0.1-0.1-0.1c0,0-0.1,0.1-0.1,0.1l-1,2.7c0,0,0,0.1,0,0.1H83.5z"/>
	<path fill="#007B9A" d="M111.7,47.8C111.6,47.8,111.6,47.8,111.7,47.8l-0.7,1.7c-0.1,0.3-0.2,0.5-0.2,0.7c0,0.2,0.1,0.3,0.4,0.3
		h0.2c0.1,0,0.2,0,0.2,0.1c0,0.1-0.1,0.1-0.2,0.1c-0.4,0-0.8,0-1.2,0c-0.1,0-0.7,0-1.3,0c-0.1,0-0.2,0-0.2-0.1c0-0.1,0-0.1,0.1-0.1
		c0.1,0,0.3,0,0.3,0c0.5-0.1,0.7-0.4,0.9-1l2.8-6.9c0.1-0.3,0.2-0.4,0.3-0.4c0.1,0,0.2,0.1,0.3,0.4c0.3,0.6,2,5.1,2.7,6.8
		c0.4,1,0.7,1.1,1,1.2c0.2,0,0.3,0,0.5,0c0.1,0,0.1,0,0.1,0.1c0,0.1-0.1,0.1-0.5,0.1c-0.4,0-1.2,0-2.1,0c-0.2,0-0.3,0-0.3-0.1
		c0-0.1,0-0.1,0.2-0.1c0.1,0,0.2-0.1,0.1-0.3l-0.9-2.3c0-0.1-0.1-0.1-0.1-0.1H111.7z M113.9,47.2C113.9,47.2,114,47.2,113.9,47.2
		l-0.9-2.8c0,0,0-0.1-0.1-0.1s-0.1,0.1-0.1,0.1l-1,2.7c0,0,0,0.1,0,0.1H113.9z"/>
	<path fill="#007B9A" d="M168.9,47.8C168.9,47.8,168.8,47.8,168.9,47.8l-0.7,1.7c-0.1,0.3-0.2,0.5-0.2,0.7c0,0.2,0.1,0.3,0.4,0.3
		h0.2c0.1,0,0.2,0,0.2,0.1c0,0.1-0.1,0.1-0.2,0.1c-0.4,0-0.8,0-1.2,0c-0.1,0-0.7,0-1.3,0c-0.1,0-0.2,0-0.2-0.1c0-0.1,0-0.1,0.1-0.1
		c0.1,0,0.3,0,0.3,0c0.5-0.1,0.7-0.4,0.9-1l2.8-6.9c0.1-0.3,0.2-0.4,0.3-0.4c0.1,0,0.2,0.1,0.3,0.4c0.3,0.6,2,5.1,2.7,6.8
		c0.4,1,0.7,1.1,1,1.2c0.2,0,0.3,0,0.5,0c0.1,0,0.1,0,0.1,0.1c0,0.1-0.1,0.1-0.5,0.1c-0.4,0-1.2,0-2.1,0c-0.2,0-0.3,0-0.3-0.1
		c0-0.1,0-0.1,0.2-0.1c0.1,0,0.2-0.1,0.1-0.3l-0.9-2.3c0-0.1-0.1-0.1-0.1-0.1H168.9z M171.2,47.2C171.2,47.2,171.2,47.2,171.2,47.2
		l-0.9-2.8c0,0,0-0.1-0.1-0.1c0,0-0.1,0.1-0.1,0.1l-1,2.7c0,0,0,0.1,0,0.1H171.2z"/>
	<path fill="#007B9A" d="M178.2,47.4c0,1.4,0,2.2,0.2,2.4c0.2,0.2,0.5,0.2,1.3,0.2c0.6,0,1,0,1.3-0.3c0.1-0.1,0.3-0.5,0.3-0.7
		c0-0.1,0-0.2,0.1-0.2c0.1,0,0.1,0.1,0.1,0.2c0,0.1-0.1,0.9-0.2,1.3c-0.1,0.2-0.1,0.3-0.7,0.3c-0.8,0-1.4,0-1.9,0
		c-0.5,0-0.9,0-1.3,0c-0.1,0-0.4,0-0.6,0c-0.3,0-0.5,0-0.8,0c-0.1,0-0.2,0-0.2-0.1c0-0.1,0-0.1,0.2-0.1c0.2,0,0.3,0,0.4,0
		c0.2,0,0.3-0.3,0.3-0.6c0.1-0.5,0.1-1.3,0.1-2.3v-1.9c0-1.7,0-2,0-2.3c0-0.4-0.1-0.5-0.5-0.6c-0.1,0-0.2,0-0.4,0
		c-0.1,0-0.2,0-0.2-0.1c0-0.1,0.1-0.1,0.2-0.1c0.5,0,1.2,0,1.5,0c0.3,0,1.1,0,1.5,0c0.2,0,0.2,0,0.2,0.1c0,0.1-0.1,0.1-0.2,0.1
		c-0.1,0-0.3,0-0.4,0c-0.3,0.1-0.4,0.2-0.4,0.6c0,0.4,0,0.7,0,2.3V47.4z"/>
	<path fill="#007B9A" d="M153.7,45.5c0-1.7,0-2,0-2.3c0-0.4-0.1-0.6-0.4-0.6c-0.1,0-0.3,0-0.4,0c-0.1,0-0.2,0-0.2-0.1
		c0-0.1,0.1-0.1,0.3-0.1c0.4,0,1.1,0,1.4,0c0.3,0,0.9,0,1.3,0c0.1,0,0.2,0,0.2,0.1c0,0.1-0.1,0.1-0.2,0.1c-0.1,0-0.2,0-0.3,0
		c-0.3,0.1-0.4,0.2-0.4,0.6c0,0.4,0,0.7,0,2.3v1.9c0,1.1,0,1.9,0,2.4c0,0.3,0.1,0.5,0.4,0.5c0.2,0,0.4,0,0.6,0c0.1,0,0.2,0,0.2,0.1
		c0,0.1-0.1,0.1-0.2,0.1c-0.7,0-1.4,0-1.7,0c-0.3,0-0.9,0-1.4,0c-0.1,0-0.2,0-0.2-0.1c0-0.1,0-0.1,0.2-0.1c0.2,0,0.3,0,0.4,0
		c0.2,0,0.3-0.2,0.3-0.6c0.1-0.5,0.1-1.3,0.1-2.4V45.5z"/>
	<path fill="#007B9A" d="M183.5,50.5c-0.2-0.1-0.2-0.1-0.2-0.4c0-0.6,0-1.3,0.1-1.4c0-0.2,0-0.3,0.1-0.3c0.1,0,0.1,0.1,0.1,0.2
		c0,0.1,0,0.4,0.1,0.6c0.2,0.8,0.9,1.1,1.6,1.1c1,0,1.5-0.7,1.5-1.3c0-0.5-0.2-1-1.1-1.8l-0.5-0.4c-1.2-0.9-1.6-1.7-1.6-2.6
		c0-1.2,1-2.1,2.5-2.1c0.7,0,1.2,0.1,1.5,0.2c0.1,0,0.2,0.1,0.2,0.1c0,0.1,0,0.5,0,1.3c0,0.2,0,0.3-0.1,0.3c-0.1,0-0.1-0.1-0.1-0.2
		c0-0.1-0.1-0.4-0.3-0.7c-0.2-0.2-0.5-0.5-1.2-0.5c-0.8,0-1.3,0.5-1.3,1.1c0,0.5,0.3,0.9,1.2,1.6l0.3,0.2c1.3,1,1.8,1.8,1.8,2.8
		c0,0.6-0.2,1.4-1,1.9c-0.6,0.4-1.2,0.4-1.8,0.4C184.4,50.8,183.9,50.7,183.5,50.5z"/>
	<path fill="#007B9A" d="M128.5,45.5c0-1.7,0-2,0-2.3c0-0.4-0.1-0.5-0.5-0.6c-0.1,0-0.3,0-0.4,0c-0.1,0-0.2,0-0.2-0.1
		c0-0.1,0.1-0.1,0.2-0.1c0.3,0,0.6,0,0.9,0c0.3,0,0.5,0,0.7,0c0.4,0,2.5,0,2.7,0c0.2,0,0.4,0,0.5-0.1c0.1,0,0.1,0,0.2,0
		c0.1,0,0.1,0,0.1,0.1c0,0.1-0.1,0.2-0.1,0.7c0,0.1,0,0.6-0.1,0.7c0,0.1,0,0.1-0.1,0.1c-0.1,0-0.1-0.1-0.1-0.2c0-0.1,0-0.3-0.1-0.4
		c-0.1-0.2-0.2-0.3-0.7-0.4c-0.2,0-1.3,0-1.6,0c-0.1,0-0.1,0-0.1,0.1v2.8c0,0.1,0,0.1,0.1,0.1c0.2,0,1.5,0,1.8,0
		c0.3,0,0.4-0.1,0.5-0.2c0.1-0.1,0.1-0.1,0.2-0.1c0,0,0.1,0,0.1,0.1s0,0.2-0.1,0.8c0,0.2,0,0.7,0,0.7c0,0.1,0,0.2-0.1,0.2
		c-0.1,0-0.1,0-0.1-0.1c0-0.1,0-0.3,0-0.4c-0.1-0.2-0.2-0.4-0.6-0.4c-0.2,0-1.3,0-1.6,0c-0.1,0-0.1,0-0.1,0.1v0.9c0,0.4,0,1.4,0,1.7
		c0,0.8,0.2,0.9,1.3,0.9c0.3,0,0.8,0,1-0.1c0.3-0.1,0.4-0.4,0.5-0.8c0-0.1,0-0.2,0.1-0.2c0.1,0,0.1,0.1,0.1,0.2c0,0.3-0.1,1-0.1,1.2
		c-0.1,0.3-0.2,0.3-0.6,0.3c-0.8,0-1.4,0-1.9,0c-0.5,0-0.8,0-1.1,0c-0.1,0-0.4,0-0.6,0c-0.3,0-0.5,0-0.8,0c-0.1,0-0.2,0-0.2-0.1
		c0-0.1,0-0.1,0.2-0.1c0.2,0,0.3,0,0.4,0c0.2,0,0.3-0.3,0.3-0.6c0.1-0.5,0.1-1.3,0.1-2.3V45.5z"/>
	<path fill="#007B9A" d="M135.5,45.5c0-1.7,0-2,0-2.3c0-0.4-0.1-0.5-0.5-0.6c-0.1,0-0.3,0-0.4,0c-0.1,0-0.2,0-0.2-0.1
		s0.1-0.1,0.2-0.1c0.6,0,1.3,0,1.6,0c0.3,0,0.9,0,1.3,0c0.2,0,0.2,0,0.2,0.1s-0.1,0.1-0.2,0.1c-0.1,0-0.2,0-0.3,0
		c-0.3,0.1-0.4,0.2-0.4,0.6c0,0.3,0,0.7,0,2.3V47c0,1.6,0.3,2.2,0.8,2.7c0.5,0.4,1,0.4,1.4,0.4c0.5,0,1.1-0.2,1.5-0.6
		c0.6-0.6,0.6-1.6,0.6-2.7v-1.4c0-1.7,0-2,0-2.3c0-0.4-0.1-0.5-0.5-0.6c-0.1,0-0.3,0-0.4,0c-0.1,0-0.2,0-0.2-0.1s0.1-0.1,0.2-0.1
		c0.6,0,1.2,0,1.2,0c0.1,0,0.8,0,1.2,0c0.2,0,0.2,0,0.2,0.1s-0.1,0.1-0.2,0.1c-0.1,0-0.2,0-0.3,0c-0.3,0.1-0.4,0.2-0.4,0.6
		c0,0.3,0,0.7,0,2.3v1.2c0,1.2-0.1,2.5-1,3.3c-0.8,0.7-1.6,0.8-2.3,0.8c-0.6,0-1.6,0-2.4-0.8c-0.6-0.5-1-1.3-1-2.9V45.5z"/>
	<path fill="#007B9A" d="M99,42.5c0-0.2,0.1-0.3,0.2-0.3c0.1,0,0.2,0.1,0.3,0.3l3,6.1l3-6.2c0.1-0.2,0.1-0.3,0.2-0.3
		c0.1,0,0.2,0.1,0.2,0.3l1,6.7c0.1,0.7,0.2,1,0.5,1.1c0.3,0.1,0.5,0.1,0.7,0.1c0.1,0,0.2,0,0.2,0.1c0,0.1-0.1,0.1-0.3,0.1
		c-0.3,0-1.8,0-2.2-0.1c-0.2,0-0.3-0.1-0.3-0.1c0-0.1,0-0.1,0.1-0.1c0.1,0,0.1-0.2,0.1-0.5l-0.7-4.8h0l-2.4,4.9
		c-0.2,0.5-0.3,0.6-0.4,0.6c-0.1,0-0.2-0.2-0.4-0.5c-0.3-0.5-1.1-2.2-1.2-2.5c-0.1-0.2-0.8-1.6-1.1-2.4h0l-0.6,4.3
		c0,0.2,0,0.3,0,0.5c0,0.2,0.1,0.3,0.3,0.3c0.2,0,0.3,0.1,0.5,0.1c0.1,0,0.2,0,0.2,0.1c0,0.1-0.1,0.1-0.3,0.1c-0.5,0-0.9,0-1.1,0
		c-0.2,0-0.7,0-1.1,0c-0.1,0-0.2,0-0.2-0.1c0-0.1,0.1-0.1,0.2-0.1c0.1,0,0.2,0,0.3,0c0.3-0.1,0.4-0.5,0.4-0.9L99,42.5z"/>
	<path fill="#007B9A" d="M74.9,45.8C75,45.8,75,45.8,74.9,45.8l0.1-0.3c0-1.7,0-2,0-2.3c0-0.4-0.1-0.6-0.5-0.6c-0.1,0-0.3,0-0.4,0
		c-0.1,0-0.2,0-0.2-0.1c0-0.1,0.1-0.1,0.2-0.1c0.6,0,1.3,0,1.6,0c0.3,0,1,0,1.4,0c0.2,0,0.2,0,0.2,0.1c0,0.1-0.1,0.1-0.2,0.1
		c-0.1,0-0.2,0-0.3,0c-0.3,0.1-0.4,0.2-0.4,0.6c0,0.4,0,0.7,0,2.3v1.9c0,1,0,1.9,0.1,2.4c0,0.3,0.1,0.6,0.4,0.6c0.2,0,0.4,0,0.6,0
		c0.1,0,0.2,0,0.2,0.1c0,0.1-0.1,0.1-0.2,0.1c-0.7,0-1.4,0-1.7,0c-0.3,0-1,0-1.4,0c-0.2,0-0.2,0-0.2-0.1c0-0.1,0-0.1,0.2-0.1
		c0.2,0,0.3,0,0.4,0c0.2,0,0.3-0.3,0.3-0.6c0.1-0.5,0.1-1.3,0.1-2.4v-1c0,0,0-0.1-0.1-0.1h-4.2c0,0-0.1,0-0.1,0.1v1
		c0,1,0,1.9,0.1,2.4c0,0.3,0.1,0.6,0.4,0.6c0.2,0,0.4,0,0.6,0c0.1,0,0.2,0,0.2,0.1c0,0.1-0.1,0.1-0.2,0.1c-0.7,0-1.4,0-1.7,0
		c-0.3,0-1,0-1.4,0c-0.1,0-0.2,0-0.2-0.1c0-0.1,0-0.1,0.2-0.1c0.2,0,0.3,0,0.4,0c0.2,0,0.3-0.3,0.3-0.6c0.1-0.5,0.1-1.3,0.1-2.4
		v-1.9c0-1.7,0-2,0-2.3c0-0.4-0.1-0.6-0.5-0.6c-0.1,0-0.3,0-0.4,0c-0.1,0-0.2,0-0.2-0.1c0-0.1,0.1-0.1,0.2-0.1c0.6,0,1.3,0,1.6,0
		c0.3,0,1,0,1.4,0c0.2,0,0.2,0,0.2,0.1c0,0.1-0.1,0.1-0.2,0.1c-0.1,0-0.2,0-0.3,0c-0.3,0.1-0.4,0.2-0.4,0.6c0,0.4,0,0.7,0,2.3v0.2
		c0,0.1,0,0.1,0.1,0.1H74.9z"/>
	<g>
		<path fill="#007B9A" d="M48.1,28.4c0,1.7,0.3,2.3,0.8,2.5c0.4,0.1,0.8,0.2,1.2,0.2c0.2,0,0.4,0,0.4,0.2c0,0.2-0.2,0.2-0.5,0.2
			c-1.5,0-2.3-0.1-2.8-0.1c-0.2,0-1.3,0.1-2.4,0.1c-0.3,0-0.5,0-0.5-0.2c0-0.1,0.1-0.2,0.4-0.2c0.3,0,0.7,0,1-0.1
			c0.6-0.2,0.7-0.8,0.7-2.8l0.2-13.2c0-0.4,0.1-0.8,0.3-0.8c0.2,0,0.4,0.3,0.8,0.7c0.3,0.3,3.7,3.9,6.9,7.2c1.5,1.5,4.5,4.7,4.9,5.1
			h0.1l-0.2-10c0-1.4-0.2-1.8-0.8-2C58.2,15,57.7,15,57.4,15c-0.3,0-0.4-0.1-0.4-0.2c0-0.2,0.2-0.2,0.6-0.2c1.2,0,2.2,0.1,2.7,0.1
			c0.2,0,1.1-0.1,2.2-0.1c0.3,0,0.5,0,0.5,0.2c0,0.1-0.1,0.2-0.4,0.2c-0.2,0-0.4,0-0.7,0.1c-0.6,0.2-0.8,0.6-0.8,1.9L60.9,31
			c0,0.5-0.1,0.7-0.3,0.7c-0.2,0-0.5-0.2-0.8-0.5c-1.4-1.3-4.3-4.3-6.6-6.6c-2.4-2.4-4.9-5.2-5.3-5.6h-0.1L48.1,28.4z"/>
		<path fill="#007B9A" d="M67.3,23c0-3.8,2.5-8.8,9.2-8.8c5.6,0,9,3.2,9,8.4c0,5.1-3.6,9.2-9.3,9.2C69.8,31.8,67.3,27,67.3,23z
			 M82.4,23.4c0-5-2.9-8.1-6.6-8.1c-2.6,0-5.5,1.4-5.5,7c0,4.7,2.6,8.3,6.9,8.3C78.8,30.7,82.4,29.9,82.4,23.4z"/>
		<path fill="#007B9A" d="M90.2,16.7c-0.5-1.2-0.9-1.5-1.7-1.7C88.2,15,87.8,15,87.7,15c-0.2,0-0.3-0.1-0.3-0.2
			c0-0.2,0.2-0.2,0.6-0.2c1.2,0,2.5,0.1,3.2,0.1c0.6,0,1.6-0.1,2.8-0.1c0.3,0,0.5,0,0.5,0.2c0,0.2-0.1,0.2-0.3,0.2
			c-0.4,0-0.7,0-0.9,0.2c-0.2,0.1-0.2,0.3-0.2,0.5c0,0.3,0.2,0.9,0.5,1.7l3.8,10.2h0.1c1-2.5,3.9-9.7,4.4-11.1
			c0.1-0.3,0.2-0.6,0.2-0.8c0-0.2-0.1-0.4-0.3-0.4c-0.3-0.1-0.6-0.1-0.9-0.1c-0.2,0-0.4,0-0.4-0.2c0-0.2,0.2-0.2,0.6-0.2
			c1.1,0,2.1,0.1,2.3,0.1c0.4,0,1.4-0.1,2.1-0.1c0.3,0,0.5,0,0.5,0.2c0,0.2-0.1,0.2-0.4,0.2c-0.2,0-0.7,0-1.1,0.3
			c-0.3,0.2-0.6,0.6-1.2,2c-0.9,2.1-1.5,3.3-2.7,6.1c-1.4,3.3-2.5,5.7-3,6.8c-0.6,1.3-0.7,1.7-1,1.7c-0.3,0-0.4-0.3-0.8-1.4
			L90.2,16.7z"/>
		<path fill="#007B9A" d="M110.9,25.6c-0.1,0-0.2,0-0.2,0.2l-1.2,3.2c-0.2,0.6-0.3,1.1-0.3,1.4c0,0.4,0.2,0.7,0.9,0.7h0.3
			c0.3,0,0.3,0,0.3,0.2c0,0.2-0.1,0.2-0.4,0.2c-0.7,0-1.7-0.1-2.4-0.1c-0.2,0-1.5,0.1-2.6,0.1c-0.3,0-0.4,0-0.4-0.2
			c0-0.1,0.1-0.2,0.3-0.2c0.2,0,0.5,0,0.7,0c1-0.1,1.5-0.9,1.9-2l5.6-14c0.3-0.7,0.4-0.9,0.6-0.9c0.2,0,0.3,0.2,0.6,0.7
			c0.5,1.2,4.1,10.4,5.5,13.8c0.9,2,1.5,2.3,2,2.4c0.3,0.1,0.7,0.1,0.9,0.1c0.2,0,0.3,0,0.3,0.2c0,0.2-0.2,0.2-1,0.2
			c-0.8,0-2.4,0-4.2,0c-0.4,0-0.7,0-0.7-0.2c0-0.1,0.1-0.2,0.3-0.2c0.2,0,0.3-0.2,0.2-0.5l-1.8-4.7c0-0.1-0.1-0.2-0.2-0.2H110.9z
			 M115.5,24.5c0.1,0,0.1-0.1,0.1-0.1l-2-5.5c0-0.1,0-0.2-0.1-0.2c-0.1,0-0.1,0.1-0.1,0.2l-2.1,5.5c0,0.1,0,0.2,0.1,0.2H115.5z"/>
		<path fill="#007B9A" d="M128.6,21c0-3.4,0-4-0.1-4.7c0-0.8-0.2-1.1-1-1.3c-0.2,0-0.6-0.1-0.9-0.1c-0.2,0-0.4,0-0.4-0.2
			c0-0.2,0.2-0.2,0.5-0.2c1.2,0,2.6,0.1,3.1,0.1c0.8,0,2.5-0.1,3.2-0.1c1.4,0,2.9,0.1,4.1,1c0.6,0.4,1.5,1.6,1.5,3.1
			c0,1.7-0.7,3.2-3,5c2,2.5,3.5,4.5,4.9,5.9c1.3,1.3,2.2,1.5,2.5,1.5c0.2,0,0.4,0.1,0.6,0.1c0.2,0,0.3,0.1,0.3,0.2
			c0,0.2-0.2,0.2-0.4,0.2h-2.1c-1.3,0-1.8-0.1-2.4-0.4c-1-0.5-1.8-1.6-3.1-3.3c-0.9-1.2-1.9-2.7-2.2-3.1c-0.1-0.1-0.2-0.2-0.4-0.2
			l-1.9,0c-0.1,0-0.2,0-0.2,0.2V25c0,2.1,0,3.8,0.1,4.8c0.1,0.6,0.2,1.1,0.9,1.2c0.3,0,0.8,0.1,1.1,0.1c0.2,0,0.3,0.1,0.3,0.2
			c0,0.2-0.2,0.2-0.4,0.2c-1.3,0-3-0.1-3.3-0.1c-0.4,0-1.8,0.1-2.7,0.1c-0.3,0-0.4-0.1-0.4-0.2c0-0.1,0.1-0.2,0.4-0.2
			c0.3,0,0.6,0,0.8-0.1c0.4-0.1,0.6-0.6,0.6-1.2c0.1-0.9,0.1-2.7,0.1-4.8V21z M131.3,22.8c0,0.2,0,0.3,0.2,0.4
			c0.5,0.2,1.1,0.2,1.7,0.2c0.9,0,1.2-0.1,1.6-0.4c0.7-0.5,1.3-1.5,1.3-3.4c0-3.2-2.1-4.1-3.4-4.1c-0.6,0-1,0-1.2,0.1
			c-0.2,0-0.2,0.1-0.2,0.3V22.8z"/>
		<path fill="#007B9A" d="M151.2,15.8l-3.3,0.1c-1.3,0-1.8,0.2-2.2,0.6c-0.2,0.3-0.3,0.6-0.4,0.8c0,0.2-0.1,0.3-0.2,0.3
			c-0.2,0-0.2-0.1-0.2-0.4c0-0.4,0.4-2.4,0.5-2.6c0.1-0.3,0.1-0.4,0.3-0.4c0.2,0,0.4,0.2,1,0.3c0.7,0.1,1.5,0.1,2.2,0.1h8.8
			c1.4,0,2-0.2,2.2-0.2c0.2,0,0.2,0.1,0.2,0.5c0,0.5-0.1,2-0.1,2.6c0,0.2-0.1,0.4-0.2,0.4c-0.2,0-0.2-0.1-0.2-0.4l0-0.2
			c0-0.6-0.7-1.2-2.6-1.3l-2.8-0.1V25c0,2.1,0,3.8,0.1,4.8c0.1,0.6,0.2,1.1,0.9,1.2c0.3,0,0.8,0.1,1.1,0.1c0.2,0,0.4,0.1,0.4,0.2
			c0,0.2-0.2,0.2-0.4,0.2c-1.5,0-2.9-0.1-3.5-0.1c-0.5,0-1.9,0.1-2.8,0.1c-0.3,0-0.4-0.1-0.4-0.2c0-0.1,0.1-0.2,0.4-0.2
			c0.3,0,0.6,0,0.8-0.1c0.4-0.1,0.6-0.6,0.7-1.2c0.1-0.9,0.1-2.7,0.1-4.8V15.8z"/>
		<path fill="#007B9A" d="M167.3,21c0-3.4,0-4,0-4.7c0-0.8-0.3-1.1-0.8-1.3c-0.2-0.1-0.5-0.1-0.8-0.1c-0.2,0-0.4,0-0.4-0.2
			c0-0.1,0.2-0.2,0.5-0.2c0.8,0,2.3,0.1,2.9,0.1c0.6,0,1.9-0.1,2.7-0.1c0.3,0,0.5,0,0.5,0.2c0,0.2-0.1,0.2-0.4,0.2
			c-0.2,0-0.4,0-0.7,0.1c-0.6,0.1-0.8,0.5-0.8,1.3c0,0.7,0,1.3,0,4.7V25c0,2.2,0,3.9,0.1,4.9c0.1,0.6,0.2,1,0.9,1.1
			c0.3,0,0.8,0.1,1.1,0.1c0.2,0,0.4,0.1,0.4,0.2c0,0.2-0.2,0.2-0.4,0.2c-1.5,0-2.9-0.1-3.5-0.1c-0.5,0-1.9,0.1-2.8,0.1
			c-0.3,0-0.4-0.1-0.4-0.2c0-0.1,0.1-0.2,0.4-0.2c0.3,0,0.6,0,0.8-0.1c0.4-0.1,0.6-0.5,0.7-1.1c0.1-0.9,0.1-2.7,0.1-4.9V21z"/>
		<path fill="#007B9A" d="M178.9,31.2c-0.4-0.2-0.4-0.3-0.4-0.8c0-1.2,0.1-2.6,0.1-2.9c0-0.3,0.1-0.6,0.3-0.6c0.2,0,0.2,0.2,0.2,0.4
			c0,0.3,0.1,0.8,0.2,1.1c0.5,1.7,1.8,2.3,3.2,2.3c2,0,3-1.4,3-2.5c0-1.1-0.3-2.1-2.2-3.6l-1-0.8c-2.5-1.9-3.3-3.5-3.3-5.3
			c0-2.5,2.1-4.2,5.2-4.2c1.5,0,2.4,0.2,3,0.4c0.2,0,0.3,0.1,0.3,0.3c0,0.3-0.1,0.9-0.1,2.7c0,0.5-0.1,0.7-0.2,0.7
			c-0.2,0-0.2-0.1-0.2-0.4c0-0.2-0.1-0.9-0.6-1.5c-0.3-0.4-1-1.1-2.4-1.1c-1.7,0-2.7,1-2.7,2.3c0,1,0.5,1.8,2.4,3.2l0.6,0.5
			c2.7,2.1,3.7,3.6,3.7,5.7c0,1.3-0.5,2.8-2.1,3.9c-1.1,0.7-2.4,0.9-3.6,0.9C180.9,31.8,179.9,31.6,178.9,31.2z"/>
		<g>
			<path fill="#FF675D" d="M13.8,32.9C1.4,32-2.4,24.9,1.8,16.8c2.2-4.3,5.7-9,1.6-13.3c-0.1-0.1,0-0.2,0.2-0.2
				c9.3,3.7,4.5,11.2,2.9,14.3c-3.1,6.1-1.1,13.5,7.4,15.1C14,32.8,14,33,13.8,32.9z"/>
			<path fill="#007B9A" d="M15.4,26.1l2.1-25.9l-4.9,0l2.6,25.9C15.3,26.3,15.4,26.3,15.4,26.1z"/>
			<path fill="#FFAF3E" d="M21.1,13.1c3.1,2.4,8.1,15.8-4.1,19.7c-0.2,0.1-0.2,0.2,0,0.2c19.4-2.4,12.7-16.3,4.3-20
				C21,12.8,20.9,13,21.1,13.1z"/>
		</g>
	</g>
</g>
</svg>
